<?xml version="1.0" encoding="UTF-8" standalone="no"?>
<!-- Created with Inkscape (http://www.inkscape.org/) -->

<svg
   xmlns:dc="http://purl.org/dc/elements/1.1/"
   xmlns:cc="http://creativecommons.org/ns#"
   xmlns:rdf="http://www.w3.org/1999/02/22-rdf-syntax-ns#"
   xmlns:svg="http://www.w3.org/2000/svg"
   xmlns="http://www.w3.org/2000/svg"
   xmlns:xlink="http://www.w3.org/1999/xlink"
   xmlns:sodipodi="http://sodipodi.sourceforge.net/DTD/sodipodi-0.dtd"
   xmlns:inkscape="http://www.inkscape.org/namespaces/inkscape"
   width="100"
   height="42"
   viewBox="0 0 100 42.000001"
   id="svg2"
   version="1.1"
   inkscape:version="0.91 r13725"
   sodipodi:docname="logo.svg">
  <defs
     id="defs4">
    <linearGradient
       inkscape:collect="always"
       id="linearGradient4233">
      <stop
         style="stop-color:#1a1a1a;stop-opacity:1;"
         offset="0"
         id="stop4235" />
      <stop
         id="stop4241"
         offset="0.51992571"
         style="stop-color:#999999;stop-opacity:1" />
      <stop
         style="stop-color:#000000;stop-opacity:1"
         offset="1"
         id="stop4237" />
    </linearGradient>
    <linearGradient
       inkscape:collect="always"
       xlink:href="#linearGradient4233"
       id="linearGradient5414"
       gradientUnits="userSpaceOnUse"
       spreadMethod="reflect"
       x1="138.5159"
       y1="1020.5599"
       x2="138.5159"
       y2="1042.8217" />
    <linearGradient
       inkscape:collect="always"
       xlink:href="#linearGradient4233"
       id="linearGradient5416"
       gradientUnits="userSpaceOnUse"
       spreadMethod="reflect"
       x1="138.5159"
       y1="1020.5599"
       x2="138.5159"
       y2="1042.8217" />
    <linearGradient
       inkscape:collect="always"
       xlink:href="#linearGradient4233"
       id="linearGradient5418"
       gradientUnits="userSpaceOnUse"
       spreadMethod="reflect"
       x1="138.5159"
       y1="1020.5599"
       x2="138.5159"
       y2="1042.8217" />
    <linearGradient
       inkscape:collect="always"
       xlink:href="#linearGradient4233"
       id="linearGradient5420"
       gradientUnits="userSpaceOnUse"
       spreadMethod="reflect"
       x1="138.5159"
       y1="1020.5599"
       x2="138.5159"
       y2="1042.8217" />
    <linearGradient
       inkscape:collect="always"
       xlink:href="#linearGradient4233"
       id="linearGradient5422"
       gradientUnits="userSpaceOnUse"
       spreadMethod="reflect"
       x1="138.5159"
       y1="1020.5599"
       x2="138.5159"
       y2="1042.8217" />
    <linearGradient
       inkscape:collect="always"
       xlink:href="#linearGradient4233"
       id="linearGradient5424"
       gradientUnits="userSpaceOnUse"
       spreadMethod="reflect"
       x1="138.5159"
       y1="1020.5599"
       x2="138.5159"
       y2="1042.8217" />
    <linearGradient
       inkscape:collect="always"
       xlink:href="#linearGradient4233"
       id="linearGradient5426"
       gradientUnits="userSpaceOnUse"
       spreadMethod="reflect"
       x1="138.5159"
       y1="1020.5599"
       x2="138.5159"
       y2="1042.8217" />
  </defs>
  <sodipodi:namedview
     id="base"
     pagecolor="#375a7f"
     bordercolor="#666666"
     borderopacity="1.0"
     inkscape:pageopacity="0"
     inkscape:pageshadow="2"
     inkscape:zoom="7.3339979"
     inkscape:cx="57.017467"
     inkscape:cy="18.675804"
     inkscape:document-units="px"
     inkscape:current-layer="g5428"
     showgrid="false"
     units="px"
     borderlayer="false"
     showborder="true"
     inkscape:showpageshadow="true"
     inkscape:window-width="1280"
     inkscape:window-height="745"
     inkscape:window-x="0"
     inkscape:window-y="33"
     inkscape:window-maximized="1"
     showguides="true"
     inkscape:guide-bbox="true"
     fit-margin-top="0"
     fit-margin-left="0"
     fit-margin-right="0"
     fit-margin-bottom="0">
    <sodipodi:guide
       position="136.45582,53.446123"
       orientation="1,0"
       id="guide4159" />
  </sodipodi:namedview>
  <metadata
     id="metadata7">
    <rdf:RDF>
      <cc:Work
         rdf:about="">
        <dc:format>image/svg+xml</dc:format>
        <dc:type
           rdf:resource="http://purl.org/dc/dcmitype/StillImage" />
        <dc:title></dc:title>
      </cc:Work>
    </rdf:RDF>
  </metadata>
  <g
     inkscape:label="Layer 1"
     inkscape:groupmode="layer"
     id="layer1"
     transform="translate(-2.06008,-1009.038)">
    <g
       id="g4243"
       transform="translate(-103.7953,1.7382813e-5)">
      <g
         id="g5428"
         transform="translate(2,-2.3413885)">
        <g
           id="text4155"
           style="font-style:normal;font-weight:normal;font-size:40px;line-height:125%;font-family:sans-serif;letter-spacing:0px;word-spacing:0px;fill:#ffffff;fill-opacity:1;stroke:#ffffff;stroke-width:3;stroke-linecap:butt;stroke-linejoin:miter;stroke-miterlimit:4;stroke-dasharray:none;stroke-opacity:1">
          <path
             inkscape:connector-curvature="0"
             id="path5400"
             style="font-style:normal;font-variant:normal;font-weight:normal;font-stretch:normal;font-size:32.5px;font-family:Unrealised;-inkscape-font-specification:Unrealised;fill:#ffffff;stroke:#ffffff;stroke-width:3;stroke-linejoin:miter;stroke-miterlimit:4;stroke-dasharray:none"
             d="m 112.71915,1045.0337 q -1.68213,0 -3.09449,1.3647 -1.39648,1.3807 -2.26928,4.0308 l 0,-30.7227 3.77685,0 q 1.68213,0 2.69776,0.032 1.03149,0.032 1.39648,0.095 1.04736,0.1904 1.80908,0.6348 0.77759,0.4284 1.26953,1.2378 0.50782,0.7934 0.74585,2.0153 0.25391,1.222 0.25391,2.9993 0,1.5234 -0.14282,2.5073 -0.12696,0.968 -0.46021,1.5552 -0.33325,0.5713 -0.90454,0.8411 -0.57129,0.2697 -1.44409,0.3808 0.80933,0.2539 1.31714,0.6031 0.52368,0.3332 0.82519,0.7141 0.31739,0.365 0.46021,0.7617 0.14282,0.3967 0.22217,0.7458 0.0635,0.3174 0.0952,1.2696 0.0317,0.9362 0.0317,2.5549 l 0,6.4746 -4.96704,0 0,-8.2361 q 0,-1.7773 -0.0952,-2.1106 -0.2539,-0.968 -1.52343,-0.968 l 0,11.2195 z m 0,-20.9155 0,5.7129 q 0.49194,0 0.80932,-0.064 0.31739,-0.063 0.49195,-0.3015 0.17456,-0.2381 0.23803,-0.6983 0.0794,-0.4602 0.0794,-1.2536 l 0,-1.4283 q 0,-0.5871 -0.0794,-0.968 -0.0793,-0.3808 -0.26977,-0.603 -0.17456,-0.2222 -0.49195,-0.3015 -0.30151,-0.095 -0.77758,-0.095 z" />
          <path
             inkscape:connector-curvature="0"
             id="path5402"
             style="font-style:normal;font-variant:normal;font-weight:normal;font-stretch:normal;font-size:32.5px;font-family:Unrealised;-inkscape-font-specification:Unrealised;fill:#ffffff;stroke:#ffffff;stroke-width:3;stroke-linejoin:miter;stroke-miterlimit:4;stroke-dasharray:none"
             d="m 131.4606,1026.8635 0,2.2217 q 0,2.5867 -0.39673,3.6182 -0.41259,1.1108 -1.52343,1.7297 -1.11084,0.603 -2.84058,0.603 l -1.41235,0 0,14.9329 q -2.26929,-4.8877 -5.36377,-4.8877 l 0,-25.4224 5.3955,0 q 2.07886,0 3.30079,0.4126 1.22192,0.4126 1.84082,1.2854 0.63476,0.8728 0.80932,2.2376 0.19043,1.3647 0.19043,3.269 z m -4.49096,-0.6982 q 0,-0.6824 -0.0794,-1.095 -0.0635,-0.4126 -0.25391,-0.6348 -0.19043,-0.238 -0.52368,-0.3015 -0.31738,-0.079 -0.82519,-0.079 l 0,6.5539 0.19043,0 q 0.0159,0.016 0.19043,0.016 0.34912,0 0.58715,-0.063 0.25391,-0.079 0.4126,-0.3173 0.15869,-0.254 0.22217,-0.7142 0.0794,-0.4602 0.0794,-1.2536 l 0,-2.1106 z" />
          <path
             inkscape:connector-curvature="0"
             id="path5404"
             style="font-style:normal;font-variant:normal;font-weight:normal;font-stretch:normal;font-size:32.5px;font-family:Unrealised;-inkscape-font-specification:Unrealised;fill:#ffffff;stroke:#ffffff;stroke-width:3;stroke-linejoin:miter;stroke-miterlimit:4;stroke-dasharray:none"
             d="m 144.42569,1028.99 -5.30029,0 0,-2.301 q 0,-1.0633 -0.0317,-1.7139 -0.0159,-0.6506 -0.11109,-0.9998 -0.0952,-0.3649 -0.26977,-0.476 -0.17456,-0.1111 -0.46021,-0.1111 -0.23803,0 -0.39672,0.063 -0.1587,0.063 -0.25391,0.3491 -0.0952,0.2856 -0.14282,0.8728 -0.0476,0.5871 -0.0476,1.6186 l 0,12.2193 q 0,0.8886 0.0317,1.4441 0.0476,0.5395 0.14282,0.8569 0.0952,0.3015 0.26978,0.4126 0.17456,0.095 0.44433,0.095 0.28565,0 0.47608,-0.1269 0.19043,-0.1429 0.30151,-0.4761 0.11108,-0.3491 0.15869,-0.9204 0.0476,-0.5872 0.0476,-1.4759 l 0,-3.031 -1.06323,0 0,-3.872 6.20483,0 0,13.6633 -3.33252,0 -0.50781,-1.8091 q -0.63477,1.3172 -1.45996,1.8408 -0.80933,0.5078 -1.84082,0.5078 -1.09497,0 -1.98365,-0.476 -0.8728,-0.4761 -1.52343,-1.2378 -0.63477,-0.7617 -1.0315,-1.7139 -0.38086,-0.9521 -0.47607,-1.9043 -0.0793,-0.7141 -0.12696,-1.6821 -0.0317,-0.9839 -0.0317,-2.2376 l 0,-7.5695 q 0,-1.8409 0.0793,-3.158 0.0793,-1.3171 0.23804,-2.1423 0.19043,-0.9681 0.69824,-1.7774 0.52368,-0.8093 1.2854,-1.3965 0.76172,-0.5871 1.698,-0.9045 0.95215,-0.3333 1.98364,-0.3333 1.17432,0 2.14234,0.3333 0.98388,0.3174 1.72973,0.8728 0.74585,0.5396 1.2378,1.2854 0.50781,0.73 0.74585,1.5393 0.47607,1.6663 0.47607,4.7766 l 0,1.095 z" />
          <path
             inkscape:connector-curvature="0"
             id="path5406"
             style="font-style:normal;font-variant:normal;font-weight:normal;font-stretch:normal;font-size:32.5px;font-family:Unrealised;-inkscape-font-specification:Unrealised;fill:#ffffff;stroke:#ffffff;stroke-width:3;stroke-linejoin:miter;stroke-miterlimit:4;stroke-dasharray:none"
             d="m 157.43839,1040.1619 q -0.19043,0.8252 -0.4126,1.4917 -0.22217,0.6506 -0.53955,1.1902 -0.30152,0.5395 -0.72998,0.968 -0.4126,0.4284 -0.99976,0.7934 -1.55518,0.968 -3.60229,0.968 -1.31714,0 -2.36451,-0.4126 -1.04736,-0.3967 -1.80908,-1.1108 -0.74585,-0.7141 -1.20605,-1.6821 -0.44434,-0.968 -0.55542,-2.1106 -0.0794,-0.857 -0.12696,-1.8567 -0.0317,-1.0156 -0.0317,-2.2217 l 0,-7.3633 q 0,-1.6345 0.0635,-2.7771 0.0635,-1.1425 0.19043,-1.8091 0.47608,-2.4914 1.99951,-3.6816 1.53931,-1.206 3.99903,-1.206 1.09497,0 2.03125,0.3491 0.95215,0.3332 1.68213,0.9045 0.74585,0.5713 1.23779,1.3172 0.50781,0.7299 0.72998,1.5075 0.22217,0.8252 0.33325,2.2058 0.11109,1.3648 0.11109,3.3484 l 0,-0.238 -5.23682,0 0,-1.9361 q 0,-0.8569 0,-1.3171 0,-0.4761 -0.0159,-0.5554 -0.17456,-1.333 -0.93628,-1.333 -0.28564,0 -0.47607,0.1111 -0.19043,0.095 -0.30152,0.4126 -0.0952,0.3173 -0.14282,0.9045 -0.0317,0.5872 -0.0317,1.5393 l 0,11.6797 q 0,0.8252 0,1.2854 0.0159,0.4602 0.0317,0.5554 0.15869,1.2378 0.96802,1.2378 0.44433,0 0.60302,-0.238 0.1587,-0.2539 0.19043,-0.968 0.0952,-1.6187 0.0952,-3.031 l 0,-0.3492 q 1.01562,0 1.87256,-0.3174 0.85693,-0.3332 1.52344,-0.9362 0.68237,-0.6031 1.14257,-1.4759 0.47608,-0.8886 0.71412,-1.9836 l 0,5.0623 0,3.0786 z" />
          <path
             inkscape:connector-curvature="0"
             id="path5408"
             style="font-style:normal;font-variant:normal;font-weight:normal;font-stretch:normal;font-size:32.5px;font-family:Unrealised;-inkscape-font-specification:Unrealised;fill:#ffffff;stroke:#ffffff;stroke-width:3;stroke-linejoin:miter;stroke-miterlimit:4;stroke-dasharray:none"
             d="m 170.43521,1045.1289 -5.37964,0 0,-9.2358 -1.60278,0 0,9.2358 -5.37964,0 0,-25.4382 5.37964,0 0,10.4419 1.60278,0 0.0159,-15.9644 q 0.39673,1.2695 0.95215,2.2852 0.55542,1.0156 1.23779,1.7297 0.69825,0.6982 1.4917,1.0791 0.80933,0.3809 1.66626,0.3809 l 0.0159,25.4858 z" />
          <path
             inkscape:connector-curvature="0"
             id="path5410"
             style="font-style:normal;font-variant:normal;font-weight:normal;font-stretch:normal;font-size:32.5px;font-family:Unrealised;-inkscape-font-specification:Unrealised;fill:#ffffff;stroke:#ffffff;stroke-width:3;stroke-linejoin:miter;stroke-miterlimit:4;stroke-dasharray:none"
             d="m 182.17838,1039.9397 0,5.1575 q -0.84107,0 -1.61866,0.3491 -0.77758,0.365 -1.45996,1.0474 -0.68237,0.6982 -1.26953,1.698 -0.57129,0.9997 -0.99976,2.2851 l 0,-5.3796 -5.74462,0 0,-25.4224 10.7434,0 0,5.1257 -5.36377,0 0,4.618 5.10987,0 0,4.8718 -5.10987,0 0,5.6653 5.69703,0 0.0159,-0.016 z" />
          <path
             inkscape:connector-curvature="0"
             id="path5412"
             style="font-style:normal;font-variant:normal;font-weight:normal;font-stretch:normal;font-size:32.5px;font-family:Unrealised;-inkscape-font-specification:Unrealised;fill:#ffffff;stroke:#ffffff;stroke-width:3;stroke-linejoin:miter;stroke-miterlimit:4;stroke-dasharray:none"
             d="m 182.82901,1019.6113 9.10889,0 0,4.8084 -3.72925,0 0,4.9194 3.31665,0 0,4.9036 -3.31665,0 0,10.8545 -0.0317,0 0,0.079 q -1.68213,0 -3.07861,1.3806 -1.38062,1.3806 -2.26929,3.9991 l 0,-30.9449 z" />
        </g>
        <path
           d="m 112.71915,1045.0337 q -1.68213,0 -3.09449,1.3647 -1.39648,1.3807 -2.26928,4.0308 l 0,-30.7227 3.77685,0 q 1.68213,0 2.69776,0.032 1.03149,0.032 1.39648,0.095 1.04736,0.1904 1.80908,0.6348 0.77759,0.4284 1.26953,1.2378 0.50782,0.7934 0.74585,2.0153 0.25391,1.222 0.25391,2.9993 0,1.5234 -0.14282,2.5073 -0.12696,0.968 -0.46021,1.5552 -0.33325,0.5713 -0.90454,0.8411 -0.57129,0.2697 -1.44409,0.3808 0.80933,0.2539 1.31714,0.6031 0.52368,0.3332 0.82519,0.7141 0.31739,0.365 0.46021,0.7617 0.14282,0.3967 0.22217,0.7458 0.0635,0.3174 0.0952,1.2696 0.0317,0.9362 0.0317,2.5549 l 0,6.4746 -4.96704,0 0,-8.2361 q 0,-1.7773 -0.0952,-2.1106 -0.2539,-0.968 -1.52343,-0.968 l 0,11.2195 z m 0,-20.9155 0,5.7129 q 0.49194,0 0.80932,-0.064 0.31739,-0.063 0.49195,-0.3015 0.17456,-0.2381 0.23803,-0.6983 0.0794,-0.4602 0.0794,-1.2536 l 0,-1.4283 q 0,-0.5871 -0.0794,-0.968 -0.0793,-0.3808 -0.26977,-0.603 -0.17456,-0.2222 -0.49195,-0.3015 -0.30151,-0.095 -0.77758,-0.095 z"
           style="font-style:normal;font-variant:normal;font-weight:normal;font-stretch:normal;font-size:32.5px;line-height:125%;font-family:Unrealised;-inkscape-font-specification:Unrealised;letter-spacing:0px;word-spacing:0px;fill:url(#linearGradient5414);fill-opacity:1;stroke:none;stroke-width:1px;stroke-linecap:butt;stroke-linejoin:miter;stroke-opacity:1"
           id="path5385"
           inkscape:connector-curvature="0" />
        <path
           d="m 131.4606,1026.8635 0,2.2217 q 0,2.5867 -0.39673,3.6182 -0.41259,1.1108 -1.52343,1.7297 -1.11084,0.603 -2.84058,0.603 l -1.41235,0 0,14.9329 q -2.26929,-4.8877 -5.36377,-4.8877 l 0,-25.4224 5.3955,0 q 2.07886,0 3.30079,0.4126 1.22192,0.4126 1.84082,1.2854 0.63476,0.8728 0.80932,2.2376 0.19043,1.3647 0.19043,3.269 z m -4.49096,-0.6982 q 0,-0.6824 -0.0794,-1.095 -0.0635,-0.4126 -0.25391,-0.6348 -0.19043,-0.238 -0.52368,-0.3015 -0.31738,-0.079 -0.82519,-0.079 l 0,6.5539 0.19043,0 q 0.0159,0.016 0.19043,0.016 0.34912,0 0.58715,-0.063 0.25391,-0.079 0.4126,-0.3173 0.15869,-0.254 0.22217,-0.7142 0.0794,-0.4602 0.0794,-1.2536 l 0,-2.1106 z"
           style="font-style:normal;font-variant:normal;font-weight:normal;font-stretch:normal;font-size:32.5px;line-height:125%;font-family:Unrealised;-inkscape-font-specification:Unrealised;letter-spacing:0px;word-spacing:0px;fill:url(#linearGradient5416);fill-opacity:1;stroke:none;stroke-width:1px;stroke-linecap:butt;stroke-linejoin:miter;stroke-opacity:1"
           id="path5387"
           inkscape:connector-curvature="0" />
        <path
           d="m 144.42569,1028.99 -5.30029,0 0,-2.301 q 0,-1.0633 -0.0317,-1.7139 -0.0159,-0.6506 -0.11109,-0.9998 -0.0952,-0.3649 -0.26977,-0.476 -0.17456,-0.1111 -0.46021,-0.1111 -0.23803,0 -0.39672,0.063 -0.1587,0.063 -0.25391,0.3491 -0.0952,0.2856 -0.14282,0.8728 -0.0476,0.5871 -0.0476,1.6186 l 0,12.2193 q 0,0.8886 0.0317,1.4441 0.0476,0.5395 0.14282,0.8569 0.0952,0.3015 0.26978,0.4126 0.17456,0.095 0.44433,0.095 0.28565,0 0.47608,-0.1269 0.19043,-0.1429 0.30151,-0.4761 0.11108,-0.3491 0.15869,-0.9204 0.0476,-0.5872 0.0476,-1.4759 l 0,-3.031 -1.06323,0 0,-3.872 6.20483,0 0,13.6633 -3.33252,0 -0.50781,-1.8091 q -0.63477,1.3172 -1.45996,1.8408 -0.80933,0.5078 -1.84082,0.5078 -1.09497,0 -1.98365,-0.476 -0.8728,-0.4761 -1.52343,-1.2378 -0.63477,-0.7617 -1.0315,-1.7139 -0.38086,-0.9521 -0.47607,-1.9043 -0.0793,-0.7141 -0.12696,-1.6821 -0.0317,-0.9839 -0.0317,-2.2376 l 0,-7.5695 q 0,-1.8409 0.0793,-3.158 0.0793,-1.3171 0.23804,-2.1423 0.19043,-0.9681 0.69824,-1.7774 0.52368,-0.8093 1.2854,-1.3965 0.76172,-0.5871 1.698,-0.9045 0.95215,-0.3333 1.98364,-0.3333 1.17432,0 2.14234,0.3333 0.98388,0.3174 1.72973,0.8728 0.74585,0.5396 1.2378,1.2854 0.50781,0.73 0.74585,1.5393 0.47607,1.6663 0.47607,4.7766 l 0,1.095 z"
           style="font-style:normal;font-variant:normal;font-weight:normal;font-stretch:normal;font-size:32.5px;line-height:125%;font-family:Unrealised;-inkscape-font-specification:Unrealised;letter-spacing:0px;word-spacing:0px;fill:url(#linearGradient5418);fill-opacity:1;stroke:none;stroke-width:1px;stroke-linecap:butt;stroke-linejoin:miter;stroke-opacity:1"
           id="path5389"
           inkscape:connector-curvature="0" />
        <path
           d="m 157.43839,1040.1619 q -0.19043,0.8252 -0.4126,1.4917 -0.22217,0.6506 -0.53955,1.1902 -0.30152,0.5395 -0.72998,0.968 -0.4126,0.4284 -0.99976,0.7934 -1.55518,0.968 -3.60229,0.968 -1.31714,0 -2.36451,-0.4126 -1.04736,-0.3967 -1.80908,-1.1108 -0.74585,-0.7141 -1.20605,-1.6821 -0.44434,-0.968 -0.55542,-2.1106 -0.0794,-0.857 -0.12696,-1.8567 -0.0317,-1.0156 -0.0317,-2.2217 l 0,-7.3633 q 0,-1.6345 0.0635,-2.7771 0.0635,-1.1425 0.19043,-1.8091 0.47608,-2.4914 1.99951,-3.6816 1.53931,-1.206 3.99903,-1.206 1.09497,0 2.03125,0.3491 0.95215,0.3332 1.68213,0.9045 0.74585,0.5713 1.23779,1.3172 0.50781,0.7299 0.72998,1.5075 0.22217,0.8252 0.33325,2.2058 0.11109,1.3648 0.11109,3.3484 l 0,-0.238 -5.23682,0 0,-1.9361 q 0,-0.8569 0,-1.3171 0,-0.4761 -0.0159,-0.5554 -0.17456,-1.333 -0.93628,-1.333 -0.28564,0 -0.47607,0.1111 -0.19043,0.095 -0.30152,0.4126 -0.0952,0.3173 -0.14282,0.9045 -0.0317,0.5872 -0.0317,1.5393 l 0,11.6797 q 0,0.8252 0,1.2854 0.0159,0.4602 0.0317,0.5554 0.15869,1.2378 0.96802,1.2378 0.44433,0 0.60302,-0.238 0.1587,-0.2539 0.19043,-0.968 0.0952,-1.6187 0.0952,-3.031 l 0,-0.3492 q 1.01562,0 1.87256,-0.3174 0.85693,-0.3332 1.52344,-0.9362 0.68237,-0.6031 1.14257,-1.4759 0.47608,-0.8886 0.71412,-1.9836 l 0,5.0623 0,3.0786 z"
           style="font-style:normal;font-variant:normal;font-weight:normal;font-stretch:normal;font-size:32.5px;line-height:125%;font-family:Unrealised;-inkscape-font-specification:Unrealised;letter-spacing:0px;word-spacing:0px;fill:url(#linearGradient5420);fill-opacity:1;stroke:none;stroke-width:1px;stroke-linecap:butt;stroke-linejoin:miter;stroke-opacity:1"
           id="path5391"
           inkscape:connector-curvature="0" />
        <path
           d="m 170.43521,1045.1289 -5.37964,0 0,-9.2358 -1.60278,0 0,9.2358 -5.37964,0 0,-25.4382 5.37964,0 0,10.4419 1.60278,0 0.0159,-15.9644 q 0.39673,1.2695 0.95215,2.2852 0.55542,1.0156 1.23779,1.7297 0.69825,0.6982 1.4917,1.0791 0.80933,0.3809 1.66626,0.3809 l 0.0159,25.4858 z"
           style="font-style:normal;font-variant:normal;font-weight:normal;font-stretch:normal;font-size:32.5px;line-height:125%;font-family:Unrealised;-inkscape-font-specification:Unrealised;letter-spacing:0px;word-spacing:0px;fill:url(#linearGradient5422);fill-opacity:1;stroke:none;stroke-width:1px;stroke-linecap:butt;stroke-linejoin:miter;stroke-opacity:1"
           id="path5393"
           inkscape:connector-curvature="0" />
        <path
           d="m 182.17838,1039.9397 0,5.1575 q -0.84107,0 -1.61866,0.3491 -0.77758,0.365 -1.45996,1.0474 -0.68237,0.6982 -1.26953,1.698 -0.57129,0.9997 -0.99976,2.2851 l 0,-5.3796 -5.74462,0 0,-25.4224 10.7434,0 0,5.1257 -5.36377,0 0,4.618 5.10987,0 0,4.8718 -5.10987,0 0,5.6653 5.69703,0 0.0159,-0.016 z"
           style="font-style:normal;font-variant:normal;font-weight:normal;font-stretch:normal;font-size:32.5px;line-height:125%;font-family:Unrealised;-inkscape-font-specification:Unrealised;letter-spacing:0px;word-spacing:0px;fill:url(#linearGradient5424);fill-opacity:1;stroke:none;stroke-width:1px;stroke-linecap:butt;stroke-linejoin:miter;stroke-opacity:1"
           id="path5395"
           inkscape:connector-curvature="0" />
        <path
           d="m 182.82901,1019.6113 9.10889,0 0,4.8084 -3.72925,0 0,4.9194 3.31665,0 0,4.9036 -3.31665,0 0,10.8545 -0.0317,0 0,0.079 q -1.68213,0 -3.07861,1.3806 -1.38062,1.3806 -2.26929,3.9991 l 0,-30.9449 z"
           style="font-style:normal;font-variant:normal;font-weight:normal;font-stretch:normal;font-size:32.5px;line-height:125%;font-family:Unrealised;-inkscape-font-specification:Unrealised;letter-spacing:0px;word-spacing:0px;fill:url(#linearGradient5426);fill-opacity:1;stroke:none;stroke-width:1px;stroke-linecap:butt;stroke-linejoin:miter;stroke-opacity:1"
           id="path5397"
           inkscape:connector-curvature="0" />
      </g>
    </g>
  </g>
</svg>
