<?xml version="1.0" encoding="UTF-8" standalone="no"?>
<!-- Created with Inkscape (http://www.inkscape.org/) -->

<svg
   xmlns:dc="http://purl.org/dc/elements/1.1/"
   xmlns:cc="http://creativecommons.org/ns#"
   xmlns:rdf="http://www.w3.org/1999/02/22-rdf-syntax-ns#"
   xmlns:svg="http://www.w3.org/2000/svg"
   xmlns="http://www.w3.org/2000/svg"
   xmlns:xlink="http://www.w3.org/1999/xlink"
   xmlns:sodipodi="http://sodipodi.sourceforge.net/DTD/sodipodi-0.dtd"
   xmlns:inkscape="http://www.inkscape.org/namespaces/inkscape"
   width="300"
   height="50"
   viewBox="0 0 300 50.000001"
   id="svg2"
   version="1.1"
   inkscape:version="0.91 r13725"
   sodipodi:docname="logo_original.svg">
  <defs
     id="defs4">
    <linearGradient
       inkscape:collect="always"
       id="linearGradient4179">
      <stop
         style="stop-color:#000000;stop-opacity:1;"
         offset="0"
         id="stop4163" />
      <stop
         style="stop-color:#000000;stop-opacity:0;"
         offset="1"
         id="stop4165" />
    </linearGradient>
    <linearGradient
       inkscape:collect="always"
       xlink:href="#linearGradient4179"
       id="linearGradient4171"
       x1="79.396553"
       y1="1025.9828"
       x2="152.58621"
       y2="1002.4483"
       gradientUnits="userSpaceOnUse" />
  </defs>
  <sodipodi:namedview
     id="base"
     pagecolor="#375a7f"
     bordercolor="#666666"
     borderopacity="1.0"
     inkscape:pageopacity="0"
     inkscape:pageshadow="2"
     inkscape:zoom="3.8666667"
     inkscape:cx="112.62931"
     inkscape:cy="25"
     inkscape:document-units="px"
     inkscape:current-layer="layer1"
     showgrid="false"
     inkscape:window-width="1280"
     inkscape:window-height="745"
     inkscape:window-x="0"
     inkscape:window-y="33"
     inkscape:window-maximized="1"
     units="px" />
  <metadata
     id="metadata7">
    <rdf:RDF>
      <cc:Work
         rdf:about="">
        <dc:format>image/svg+xml</dc:format>
        <dc:type
           rdf:resource="http://purl.org/dc/dcmitype/StillImage" />
        <dc:title />
      </cc:Work>
    </rdf:RDF>
  </metadata>
  <g
     inkscape:label="Layer 1"
     inkscape:groupmode="layer"
     id="layer1"
     transform="translate(0,-1002.3621)">
    <path
       style="color:#000000;font-style:normal;font-variant:normal;font-weight:normal;font-stretch:normal;font-size:medium;line-height:125%;font-family:'New Gothic Textura';-inkscape-font-specification:'New Gothic Textura';text-indent:0;text-align:start;text-decoration:none;text-decoration-line:none;text-decoration-style:solid;text-decoration-color:#000000;letter-spacing:0px;word-spacing:0px;text-transform:none;direction:ltr;block-progression:tb;writing-mode:lr-tb;baseline-shift:baseline;text-anchor:start;white-space:normal;clip-rule:nonzero;display:inline;overflow:visible;visibility:visible;opacity:1;isolation:auto;mix-blend-mode:normal;color-interpolation:sRGB;color-interpolation-filters:linearRGB;solid-color:#000000;solid-opacity:1;fill:#ffffff;fill-opacity:1;fill-rule:nonzero;stroke:none;stroke-width:1;stroke-linecap:butt;stroke-linejoin:miter;stroke-miterlimit:4;stroke-dasharray:none;stroke-dashoffset:0;stroke-opacity:1;color-rendering:auto;image-rendering:auto;shape-rendering:auto;text-rendering:auto;enable-background:accumulate"
       d="m 215.32031,1002.1175 c -0.40184,0 -0.78868,0.105 -1.11328,0.3203 l -8.89258,5.8086 -0.0137,0.01 c -0.28534,0.214 -0.52226,0.5088 -0.73242,0.8691 l -0.002,0.01 -0.004,0.01 c -0.19355,0.3548 -0.30077,0.7349 -0.30079,1.1191 l 0,7.7598 c 0,0.1873 -0.0407,0.2731 -0.13476,0.3672 l -0.0137,0.014 -0.0117,0.014 c -0.0707,0.082 -0.10977,0.1055 -0.25977,0.1055 -0.32766,0 -0.66896,0.087 -1.04492,0.2304 -0.37405,0.1166 -0.70772,0.2658 -0.99219,0.4551 l -2.31836,1.5215 -0.002,0 c -0.14489,0.097 -0.26638,0.189 -0.37305,0.3223 -0.10666,0.1334 -0.21951,0.3621 -0.15625,0.6152 0.0657,0.2625 0.30179,0.4171 0.46875,0.4727 0.16698,0.056 0.32109,0.064 0.49805,0.064 l 3.79883,0 c 0.17212,0 0.24255,0.035 0.34375,0.1504 l 0.0215,0.025 0.0254,0.021 c 0.11566,0.1012 0.15039,0.1716 0.15039,0.3437 l 0,21.5196 c 0,0.3843 0.10724,0.7642 0.30079,1.1191 l 0.004,0.01 0.002,0.01 c 0.21016,0.3603 0.44708,0.6532 0.73242,0.8672 l 0.0137,0.01 4.13476,2.6894 c 0.16122,0.1068 0.33343,0.1899 0.53516,0.2168 0.19283,0.026 0.40796,-0.027 0.58008,-0.1308 0.17666,-0.097 0.3228,-0.2558 0.39648,-0.4278 0.0771,-0.1798 0.0995,-0.3632 0.0996,-0.5546 l 0.0801,-25.3204 c 0,-0.1873 0.0407,-0.273 0.13477,-0.3671 0.13231,-0.1323 0.23413,-0.1739 0.40625,-0.1739 l 2.08007,0 c 0.35394,0 0.72092,-0.063 1.10547,-0.1816 0.40478,-0.1163 0.75459,-0.2632 1.04883,-0.459 l 0.002,0 2.31835,-1.5195 0.002,0 c 0.14489,-0.097 0.26638,-0.1909 0.37304,-0.3243 0.10427,-0.1303 0.20466,-0.3534 0.15039,-0.5996 -0.0533,-0.2329 -0.25127,-0.4303 -0.42773,-0.5039 -0.18014,-0.075 -0.34866,-0.09 -0.5332,-0.09 l -6.11914,0 c -0.1787,0 -0.29101,-0.047 -0.41211,-0.1484 -0.0856,-0.09 -0.12891,-0.1723 -0.12891,-0.3516 l 0,-9.8789 c 0,-0.2139 0.0508,-0.4306 0.1543,-0.6621 0.13098,-0.2586 0.26403,-0.4077 0.37109,-0.4746 0.11805,-0.074 0.2846,-0.1231 0.53516,-0.1231 0.26974,0 0.45596,0.058 0.60351,0.1563 l 2.57422,1.7304 0.0195,0.01 c 0.32934,0.183 0.71228,0.2637 1.12305,0.2637 0.41077,0 0.78892,-0.08 1.10547,-0.2774 l 0.004,0 2.72656,-1.8027 0.002,0 c 0.32534,-0.2169 0.58203,-0.5757 0.58203,-0.9766 0,-0.4066 -0.26585,-0.8028 -0.61719,-0.998 l 0.0332,0.019 -3.87891,-2.5586 c -0.33245,-0.2216 -0.73461,-0.3222 -1.1582,-0.3222 l 0,-0.024 z m -61.38476,0.018 0,0.022 c -0.40334,0 -0.79185,0.1073 -1.11719,0.3242 l -0.006,0 -10.05469,7.0488 -0.01,0.01 c -0.30428,0.2366 -0.54763,0.5531 -0.73438,0.9238 -0.19101,0.3527 -0.29883,0.7299 -0.29883,1.1114 l 0,20.041 c 0,0.3843 0.10564,0.7679 0.29297,1.1425 0.18982,0.3797 0.4442,0.6953 0.76953,0.9122 l 7.33008,5.2187 c 0.32501,0.2528 0.72927,0.3849 1.14649,0.3848 0.42359,0 0.82329,-0.1019 1.14062,-0.3399 l 6.81836,-4.7832 c 0.29784,-0.1986 0.53353,-0.4804 0.59766,-0.8379 0.0785,-0.3656 -0.0841,-0.8106 -0.38477,-1.0254 -0.3003,-0.2145 -0.67895,-0.2843 -1.05664,-0.25 -0.37088,0.034 -0.72369,0.1564 -1.03125,0.3614 l -0.006,0 -0.006,0 -2.30859,1.6328 c 0,0 -0.002,0 -0.002,0 -0.14734,0.098 -0.33264,0.1543 -0.60157,0.1543 -0.23666,0 -0.38266,-0.051 -0.5,-0.1387 l -0.006,-0.01 -4.55273,-3.1543 c -0.17792,-0.1397 -0.32829,-0.3205 -0.45703,-0.5546 -0.12779,-0.2596 -0.1836,-0.4866 -0.1836,-0.6856 l 0,-20.4394 c 0,-0.2025 0.0548,-0.432 0.1875,-0.6973 0.13019,-0.2604 0.27503,-0.4242 0.42969,-0.5274 l 0.002,0 0.89257,-0.6074 0.008,-0.012 c 0.11733,-0.088 0.26333,-0.1406 0.5,-0.1406 0.26974,0 0.45596,0.058 0.60351,0.1562 l 2.84961,1.9785 c 0.32501,0.2527 0.72926,0.3848 1.14649,0.3848 0.43641,0 0.8554,-0.1266 1.1875,-0.3848 l -0.0195,0.018 2.80664,-1.9648 0.006,-0.01 c 0.29867,-0.224 0.51954,-0.579 0.51954,-0.959 0,-0.3882 -0.2102,-0.768 -0.51954,-1 l -0.006,-0.012 -4.21093,-2.9668 -0.006,0 c -0.33245,-0.2216 -0.73266,-0.3242 -1.15625,-0.3242 z m 13.42969,0.031 c -0.28732,-0.033 -0.58055,0.077 -0.81641,0.2344 l -4.12695,2.6973 c -0.34721,0.1929 -0.61239,0.508 -0.80469,0.8926 -0.18733,0.3747 -0.29297,0.7602 -0.29297,1.1445 l 0,27.3203 c 0,0.3842 0.10564,0.7679 0.29297,1.1426 l 0.0117,0.023 0.0137,0.022 c 0.21667,0.3405 0.4776,0.6231 0.78516,0.8281 l 0.004,0 4.11524,2.5957 c 0.31467,0.2098 0.73286,0.3348 1.10156,0.1504 l 0.0273,-0.014 0.0254,-0.016 c 0.33548,-0.2237 0.46249,-0.6299 0.46289,-1.0136 l 0.041,-20.1993 c 0,-0.2144 0.0482,-0.4317 0.15234,-0.664 0.12821,-0.2534 0.26361,-0.4155 0.39063,-0.5156 0.1172,-0.069 0.27414,-0.1211 0.51562,-0.1211 0.23667,0 0.40784,0.053 0.5625,0.1562 l 2.79883,1.918 0.002,0 c 0.15467,0.1031 0.29951,0.2669 0.42969,0.5273 l 0.004,0.01 0.004,0.01 c 0.12645,0.2318 0.17969,0.4382 0.17969,0.6406 l 0.041,21.4804 c 1.5e-4,0.1914 0.0225,0.3748 0.0996,0.5547 0.0773,0.1805 0.22669,0.3565 0.41601,0.4512 0.3687,0.1843 0.78689,0.057 1.10156,-0.1523 l 4.125,-2.7774 c 0.34721,-0.1929 0.61239,-0.5099 0.80469,-0.8945 0.18733,-0.3747 0.29297,-0.7584 0.29297,-1.1426 l 0,-19.2402 c 0,-0.3822 -0.10917,-0.7601 -0.30079,-1.1133 -0.18917,-0.3744 -0.43978,-0.6876 -0.76171,-0.9023 l -0.002,0 -5.55859,-3.6387 c -0.33245,-0.2216 -0.73461,-0.3242 -1.1582,-0.3242 -0.40333,0 -0.79185,0.1073 -1.11719,0.3242 l -2.95898,1.959 c -0.0904,0.06 -0.0488,0.045 -0.0547,0.049 -0.004,-0.027 -0.008,-0.028 -0.008,-0.072 l -0.041,-11.2402 c 0,-0.1921 -0.0223,-0.3761 -0.0996,-0.5566 -0.0773,-0.1806 -0.22669,-0.3547 -0.41601,-0.4493 -0.092,-0.046 -0.18743,-0.073 -0.2832,-0.084 z m -87.191411,0.055 c -0.192824,-0.026 -0.407959,0.027 -0.580078,0.1309 -0.175497,0.097 -0.321184,0.2565 -0.394531,0.4277 -0.07735,0.1804 -0.101563,0.3646 -0.101563,0.5567 l -0.03906,34.8808 c 0,0.1921 0.02226,0.3762 0.09961,0.5567 0.07735,0.1805 0.226697,0.3546 0.416016,0.4492 l 0.01367,0.01 0.01367,0.01 c 0.360361,0.1544 0.794431,0.046 1.095703,-0.1797 l 0.002,0 4.388672,-2.9531 0.0098,-0.01 c 0.281244,-0.211 0.509383,-0.4964 0.695313,-0.8359 0.217514,-0.3752 0.345703,-0.7674 0.345703,-1.1641 l 0,-9.9589 c 0,-0.1979 0.05728,-0.4238 0.183594,-0.6817 0.159207,-0.2684 0.319137,-0.4551 0.457031,-0.5586 l 1.146485,-0.75 0.01367,-0.01 c 0.109334,-0.082 0.269319,-0.1407 0.539063,-0.1407 0.269743,0 0.431682,0.059 0.541016,0.1407 l 0.0078,0.01 2.652344,1.8086 0.002,0 c 0.154661,0.1031 0.299502,0.2671 0.429687,0.5274 l 0.01172,0.021 0.01367,0.024 c 0.146138,0.2297 0.201172,0.424 0.201172,0.6113 l 0,12.2793 c 0,0.3842 0.105639,0.7698 0.292969,1.1445 0.189814,0.3796 0.444192,0.6952 0.769531,0.9121 l 4.359375,2.959 0.002,0 c 0.162669,0.1084 0.337131,0.1935 0.541016,0.2207 0.188988,0.025 0.39785,-0.031 0.568359,-0.1308 0.180588,-0.091 0.348933,-0.2439 0.427734,-0.4278 0.08528,-0.199 0.09641,-0.4024 0.07813,-0.6035 l 0.002,0.045 -0.04102,-18.0781 c 0,-0.392 -0.132078,-0.7752 -0.351563,-1.1269 -0.182219,-0.3565 -0.402002,-0.659 -0.6875,-0.8731 l -0.0098,-0.01 -4.427735,-3.0196 -0.01953,-0.01 c -0.141039,-0.078 -0.103515,-0.058 -0.103515,-0.084 0,-0.073 -0.0073,-0.09 0.136718,-0.1856 l 0.002,0 2.320313,-1.5586 -0.03516,0.02 c 0.347208,-0.1929 0.610435,-0.508 0.802734,-0.8926 0.18733,-0.3747 0.292969,-0.7602 0.292969,-1.1445 l 0,-5.1993 c 0,-0.3801 -0.107192,-0.7577 -0.296875,-1.1093 -0.18902,-0.3758 -0.441311,-0.6907 -0.763672,-0.9063 l -6.88086,-4.6406 c -0.332449,-0.2217 -0.734613,-0.3242 -1.158203,-0.3242 -0.403333,0 -0.791849,0.1073 -1.117187,0.3242 l -0.002,0 -2.361328,1.6016 c -0.147056,0.097 -0.331714,0.1542 -0.59961,0.1542 -0.235903,0 -0.406276,-0.054 -0.560547,-0.1562 l -0.002,0 -2.798828,-1.8789 c -0.162669,-0.1084 -0.339085,-0.1917 -0.542969,-0.2188 l 0,0 z m 135.146481,0.8965 c 0.26974,0 0.45596,0.056 0.60351,0.1543 l 3.89844,2.5703 0.0156,0.01 c 0.12867,0.071 0.10351,0.05 0.10351,0.123 0,0.026 0.0144,0.042 -0.13672,0.1426 l -2.70898,1.793 c -0.11011,0.069 -0.29166,0.125 -0.57422,0.125 -0.28256,0 -0.48606,-0.055 -0.63672,-0.1387 l -2.52539,-1.6972 c -0.33245,-0.2216 -0.73461,-0.3243 -1.1582,-0.3243 -0.38945,0 -0.75584,0.082 -1.06446,0.2754 -0.31813,0.1988 -0.55485,0.5062 -0.74218,0.8809 l -0.004,0.01 -0.004,0.01 c -0.15931,0.3505 -0.24609,0.7188 -0.24609,1.0879 l 0,9.8789 c 0,0.3994 0.14847,0.7949 0.42774,1.0742 l 0.0117,0.012 0.0117,0.012 c 0.29881,0.2615 0.69045,0.4023 1.08985,0.4023 l 5.51953,0 -1.83594,1.2031 -0.002,0 c -0.18311,0.122 -0.44225,0.2377 -0.7793,0.334 l -0.006,0 -0.004,0 c -0.30877,0.095 -0.57976,0.1367 -0.8125,0.1367 l -2.08007,0 c -0.41455,0 -0.81893,0.1724 -1.11328,0.4668 -0.27883,0.2788 -0.42728,0.6736 -0.42774,1.0723 l -0.0801,25.3203 c 0,0.056 -0.007,0.062 -0.0117,0.09 -0.02,-0.01 -0.0177,-4e-4 -0.0508,-0.025 l -0.002,0 -4.09961,-2.666 c -0.13955,-0.1056 -0.29824,-0.2903 -0.45898,-0.5645 -0.12316,-0.2284 -0.17579,-0.4328 -0.17579,-0.6328 l 0,-21.5195 c 0,-0.4022 -0.18444,-0.7907 -0.47851,-1.0625 -0.27186,-0.2941 -0.66034,-0.4786 -1.0625,-0.4786 l -3.13672,0 1.77344,-1.1621 0.002,0 c 0.19022,-0.1269 0.43755,-0.2442 0.74805,-0.3398 l 0.0176,0 0.0156,-0.01 c 0.31059,-0.1195 0.55377,-0.1679 0.70117,-0.1679 0.37584,0 0.75033,-0.1631 1,-0.4434 0.2703,-0.2783 0.41994,-0.6639 0.41992,-1.0566 l 0,-7.7598 c 0,-0.1994 0.0534,-0.4033 0.17579,-0.6309 0.16135,-0.2753 0.32101,-0.461 0.46093,-0.5664 0,0 0.002,0 0.002,0 l 8.85547,-5.7832 0.002,0 c 0.15466,-0.1031 0.32583,-0.1543 0.5625,-0.1543 z m -61.38476,0.039 c 0.26974,0 0.45401,0.058 0.60156,0.1562 l 4.17969,2.9453 c 0.11341,0.085 0.11719,0.1085 0.11719,0.1993 0,0.047 0.009,0.064 -0.11915,0.1601 l -2.79687,1.9571 -0.01,0.01 c -0.14791,0.115 -0.31729,0.1738 -0.57421,0.1738 -0.22278,0 -0.37626,-0.053 -0.53125,-0.1738 l -0.0117,-0.01 -2.89453,-2.0118 -0.004,0 c -0.33245,-0.2216 -0.73461,-0.3242 -1.1582,-0.3242 -0.40334,0 -0.79028,0.1079 -1.09961,0.3399 l -0.85743,0.5839 c 0,0 -0.002,0 -0.002,0 l -0.002,0 c -0.32319,0.2168 -0.57669,0.5303 -0.76563,0.9082 -0.18733,0.3747 -0.29297,0.7603 -0.29297,1.1446 l 0,20.4394 c 0,0.3843 0.10564,0.77 0.29297,1.1446 l 0.004,0.01 0.004,0.01 c 0.18897,0.3464 0.43473,0.6434 0.73242,0.875 l 0.01,0.01 4.55664,3.1562 c 0.30934,0.232 0.69628,0.3399 1.09961,0.3399 0.42359,0 0.82576,-0.1007 1.15821,-0.3223 l 0.006,0 2.3164,-1.6367 c 0.17196,-0.1143 0.35129,-0.1777 0.56641,-0.1973 0.20898,-0.019 0.30977,0.016 0.38281,0.068 0.004,0 9.1e-4,0 0.004,0 l -0.004,0.012 -0.004,0.027 c 2.1e-4,0 -0.009,0.059 -0.18164,0.1739 l -0.006,0 -6.85156,4.8066 -0.006,0.01 c -0.10933,0.082 -0.27127,0.1386 -0.54101,0.1386 -0.22278,0 -0.37626,-0.053 -0.53125,-0.1738 l -0.01,-0.01 -7.375,-5.2519 -0.006,0 c -0.15466,-0.1031 -0.2995,-0.2671 -0.42969,-0.5274 -0.13267,-0.2654 -0.1875,-0.4928 -0.1875,-0.6953 l 0,-20.041 c 0,-0.2024 0.0532,-0.4088 0.17969,-0.6406 l 0.004,-0.01 0.004,-0.01 c 0.1317,-0.2634 0.28343,-0.4514 0.45508,-0.586 l 10.01563,-7.0215 c 0.15466,-0.1031 0.32583,-0.1562 0.5625,-0.1562 z m 13.2207,0.027 c 0.004,0.027 0.008,0.025 0.008,0.07 l 0.041,11.2403 c 1.6e-4,0.1914 0.0225,0.3748 0.0996,0.5547 0.0773,0.1805 0.22669,0.3564 0.41601,0.4511 0.3687,0.1843 0.7869,0.057 1.10157,-0.1523 l 2.95898,-1.959 c 0.15466,-0.1031 0.32583,-0.1562 0.5625,-0.1562 0.26974,0 0.45597,0.058 0.60352,0.1562 l 0.002,0 5.56055,3.6426 c 0.15395,0.1032 0.29807,0.2661 0.42773,0.5254 l 0.004,0.012 0.004,0.01 c 0.12645,0.2319 0.17969,0.4381 0.17969,0.6406 l 0,19.2402 c 0,0.2024 -0.0548,0.43 -0.1875,0.6953 -0.1277,0.2554 -0.26369,0.393 -0.39648,0.4668 l -0.0176,0.01 -4.17773,2.8125 c -0.083,0.055 -0.0471,0.043 -0.0527,0.047 -0.004,-0.026 -0.008,-0.028 -0.008,-0.072 l -0.041,-21.4805 c 0,-0.3809 -0.1084,-0.757 -0.29883,-1.1093 -0.18939,-0.3761 -0.44058,-0.6909 -0.76367,-0.9063 l -2.79687,-1.918 -0.004,0 c -0.32534,-0.2169 -0.71385,-0.3242 -1.11719,-0.3242 -0.38944,0 -0.75584,0.085 -1.06445,0.2774 l -0.0176,0.01 -0.0176,0.014 c -0.29333,0.22 -0.52218,0.5268 -0.70703,0.8965 l -0.004,0.01 -0.004,0.012 c -0.15931,0.3505 -0.24414,0.7188 -0.24414,1.0879 l -0.041,20.1992 c 0,0.1206 -0.004,0.094 -0.01,0.1094 -0.008,0 0.0335,0.013 -0.0527,-0.045 l -0.006,0 -4.11328,-2.5957 c -0.16554,-0.1106 -0.32544,-0.2807 -0.47656,-0.5117 -0.12246,-0.2532 -0.18164,-0.4748 -0.18164,-0.6699 l 0,-27.3203 c 0,-0.2024 0.0548,-0.4319 0.1875,-0.6973 0.1277,-0.2554 0.26174,-0.393 0.39453,-0.4668 l 0.0156,-0.012 4.17773,-2.7305 0.002,0 c 0.0904,-0.06 0.0488,-0.045 0.0547,-0.049 l 0,-0.014 z m -87.046874,0.061 c 0.01961,0.01 0.01778,0.01 0.05078,0.025 l 2.800782,1.8808 c 0.325338,0.2169 0.713854,0.3242 1.117187,0.3242 0.42359,0 0.825753,-0.1026 1.158203,-0.3242 l 0.002,0 2.361329,-1.5996 c 0.153771,-0.1016 0.323664,-0.1543 0.558593,-0.1543 0.269744,0 0.455966,0.058 0.603516,0.1563 l 6.878906,4.6386 c 0.154662,0.1031 0.301455,0.2689 0.431641,0.5293 l 0.0039,0.012 0.0039,0.01 c 0.12645,0.2318 0.177735,0.4382 0.177735,0.6406 l 0,5.1993 c 0,0.2025 -0.05288,0.4319 -0.185547,0.6972 -0.127701,0.2554 -0.263692,0.3912 -0.396484,0.4649 l -0.01953,0.012 -2.335937,1.5723 c -0.335261,0.2242 -0.582031,0.6075 -0.582031,1.0136 0,0.4008 0.278226,0.7688 0.617187,0.9571 l -0.03906,-0.024 4.384766,2.9903 c 0.132632,0.1003 0.275851,0.2724 0.410156,0.541 l 0.01172,0.021 0.01367,0.021 c 0.146138,0.2297 0.201172,0.426 0.201172,0.6133 l 0.04102,18.1016 0.002,0.023 c 0.0036,0.04 0.0017,0.031 0,0.051 -0.02036,-0.01 -0.0225,-0.01 -0.06445,-0.033 l -4.359374,-2.959 -0.002,0 c -0.154661,-0.1031 -0.299501,-0.2669 -0.429687,-0.5273 -0.13267,-0.2653 -0.1875,-0.4949 -0.1875,-0.6973 l 0,-12.2793 c 0,-0.3912 -0.130965,-0.7739 -0.349609,-1.125 -0.188352,-0.3679 -0.434182,-0.6788 -0.751954,-0.8906 l -2.617187,-1.7852 c -0.317333,-0.238 -0.717035,-0.3398 -1.140625,-0.3398 -0.42359,0 -0.823292,0.1018 -1.140625,0.3398 l -1.146485,0.75 -0.01367,0.01 c -0.285334,0.214 -0.520306,0.5088 -0.730469,0.8691 l -0.0078,0.014 -0.0078,0.014 c -0.18733,0.3747 -0.292969,0.7622 -0.292969,1.1465 l 0,9.9589 c 0,0.1872 -0.05973,0.4036 -0.212891,0.6661 l -0.002,0.012 -0.0039,0.01 c -0.133018,0.2439 -0.276517,0.4095 -0.419922,0.5176 0,0 -0.002,0 -0.002,0 l -4.388672,2.9512 -0.01172,0.01 c -0.03905,0.029 -0.017,0.011 -0.03125,0.019 -0.003,-0.024 -0.0078,-0.023 -0.0078,-0.059 l 0.03906,-34.8809 c 0,-0.057 0.0065,-0.064 0.01172,-0.092 l 0,-0.014 z m 5.853516,3.2968 c -0.09608,0.01 -0.19116,0.03 -0.28125,0.068 l 0,-0.014 -0.01367,0.01 -0.01367,0.01 c -0.189319,0.095 -0.338661,0.2687 -0.416016,0.4492 -0.07735,0.1804 -0.09961,0.3665 -0.09961,0.5586 l 0,12.6797 c 0,0.1922 0.02226,0.3761 0.09961,0.5566 0.07735,0.1805 0.226697,0.3545 0.416016,0.4492 l 0.01367,0.01 0.01367,0.01 c 0.360362,0.1544 0.794431,0.045 1.095703,-0.1797 l 0.002,0 3.416016,-2.3047 0.002,0 c 0.312113,-0.2086 0.56462,-0.5006 0.755859,-0.8496 0.217515,-0.3752 0.345703,-0.7674 0.345703,-1.1641 l 0,-5.7207 c 0,-0.3912 -0.132914,-0.7739 -0.351562,-1.125 -0.187906,-0.3671 -0.433296,-0.6769 -0.75,-0.8887 l -3.417969,-2.3066 c 0,0 -0.002,0 -0.002,0 -0.225954,-0.1689 -0.526221,-0.272 -0.814453,-0.2481 z m 0.183594,1.0157 c 0.01425,0.01 -0.0078,-0.011 0.03125,0.018 l 0.01172,0.01 3.451172,2.3281 c 0.154662,0.1031 0.301455,0.267 0.431641,0.5274 l 0.0098,0.025 0.01562,0.022 c 0.146139,0.2297 0.201172,0.424 0.201172,0.6113 l 0,5.7207 c 0,0.1872 -0.05973,0.4055 -0.21289,0.668 l -0.002,0.01 -0.0039,0.01 c -0.127974,0.2346 -0.274124,0.3936 -0.439453,0.5039 l -3.451172,2.3281 -0.01172,0.01 c -0.03905,0.029 -0.017,0.01 -0.03125,0.019 -0.003,-0.024 -0.0078,-0.024 -0.0078,-0.06 l 0,-12.6797 c 0,-0.037 0.0048,-0.036 0.0078,-0.061 l 0,-0.01 z m 46.833984,4.6386 c -0.40333,0 -0.79185,0.1074 -1.11719,0.3243 l -9.31836,6.1191 -0.002,0 c -0.32309,0.2154 -0.57428,0.5302 -0.76367,0.9063 -0.19043,0.3523 -0.29883,0.7284 -0.29883,1.1093 l 0,11.1992 c 0,0.3843 0.10564,0.7699 0.29297,1.1446 l 0.004,0.01 0.004,0.01 c 0.19203,0.352 0.44705,0.6476 0.76172,0.8574 l 0.002,0 3.08399,2.002 c 0.32428,0.2145 0.71013,0.3203 1.11133,0.3203 0.42292,0 0.8241,-0.1014 1.15625,-0.3223 l 5.32031,-3.5195 0.002,0 c 0.0701,-0.047 0.0938,-0.057 0.10938,-0.064 -0.004,0.01 -0.008,0.01 -0.008,0.057 l 0,1 c -0.0192,0.1062 -0.0391,0.2127 -0.0391,0.3203 l 0,0.7207 0,1.0801 c 0,0.1996 -0.0568,0.4249 -0.18555,0.6855 -0.13007,0.2363 -0.28262,0.4184 -0.46289,0.5586 l -7.66601,5.4317 -0.006,0 c -0.28534,0.214 -0.52226,0.5069 -0.73242,0.8672 l -0.008,0.014 -0.008,0.018 c -0.18733,0.3746 -0.29297,0.7584 -0.29297,1.1426 l 0,3.3203 c 0,0.3842 0.10564,0.7698 0.29297,1.1445 l 0.008,0.014 0.008,0.014 c 0.21016,0.3603 0.44708,0.6551 0.73242,0.8691 l 0.004,0 3.79493,2.7168 c 0.30933,0.232 0.69823,0.3398 1.10156,0.3398 0.42359,0 0.8238,-0.1025 1.15625,-0.3242 l 0.008,0 8.14649,-5.9004 0.0176,-0.016 c 0.27093,-0.237 0.4904,-0.5436 0.67188,-0.9043 0.19102,-0.3527 0.29883,-0.7297 0.29883,-1.1113 l 0,-3 0,-0.7598 c 0,-0.065 0.01,-0.1043 0.0156,-0.1211 l 0.0254,-0.078 0,-1.1211 0,-21.4805 c 0,-0.3911 -0.13291,-0.7739 -0.35156,-1.125 -0.18835,-0.3678 -0.43418,-0.6787 -0.75195,-0.8906 l -0.002,0 -4.95703,-3.2402 c -0.33245,-0.2216 -0.73461,-0.3242 -1.1582,-0.3242 l 0,-0.012 z m 59.97851,0.047 c -0.31753,-0.026 -0.62451,0.031 -0.91211,0.1387 -0.11509,0.018 -0.20529,0.044 -0.27344,0.078 -0.0905,0.045 -0.18617,0.1021 -0.30078,0.1738 l -0.004,0 -4.56641,2.9629 -0.6582,0.4395 -0.0566,0 -3.44532,2.2422 -0.002,0 c -0.31822,0.2121 -0.57954,0.5155 -0.79492,0.8847 l -0.004,0.01 -0.004,0.01 c -0.19355,0.3548 -0.30077,0.7349 -0.30079,1.1191 l 0,13.0391 c 0,0.3842 0.10564,0.7699 0.29297,1.1445 l 0.0117,0.022 0.0137,0.023 c 0.22036,0.3463 0.4904,0.6264 0.81836,0.8086 l 5.52539,3.6192 c 0,0 0.002,0 0.002,0 l 0.002,0 c 0.33175,0.22 0.73222,0.3203 1.1543,0.3203 0.42359,0 0.82329,-0.1019 1.14062,-0.3399 l -0.0293,0.022 7.44335,-4.8027 0.002,0 c 0.29941,-0.1996 0.53908,-0.4816 0.60156,-0.8418 0.0406,-0.172 0.0477,-0.3728 -0.0332,-0.5508 -0.0824,-0.1812 -0.22743,-0.305 -0.375,-0.3945 -0.29756,-0.2054 -0.66441,-0.2798 -1.03516,-0.2461 -0.37026,0.034 -0.72405,0.1569 -1.03125,0.3613 l -2.87695,1.8379 -0.004,0 c -0.14756,0.098 -0.33378,0.1562 -0.60352,0.1562 -0.23667,0 -0.40784,-0.053 -0.5625,-0.1562 l -0.004,0 -2.92578,-1.8848 -0.002,0 c -0.13394,-0.084 -0.26801,-0.2195 -0.39649,-0.4336 -0.12982,-0.2164 -0.20578,-0.4202 -0.24805,-0.6171 l 0,-3.5645 c 0,-0.2 0.0526,-0.4044 0.17579,-0.6328 0.15688,-0.2674 0.3199,-0.4438 0.48046,-0.5508 l 8.83789,-5.7187 0.002,0 c 0.31468,-0.2098 0.5697,-0.5035 0.76172,-0.8555 l 0.004,-0.01 0.004,-0.01 c 0.18733,-0.3746 0.29297,-0.7583 0.29297,-1.1426 l 0,-0.2793 0,-0.2813 0,-1.2402 -0.002,0.045 c 0.0369,-0.4056 -0.0858,-0.8107 -0.31054,-1.1719 -0.1882,-0.3667 -0.43298,-0.6772 -0.75,-0.8886 l -0.004,0 -4.00587,-2.5645 -0.002,0 c -0.30236,-0.189 -0.66232,-0.2661 -1.04297,-0.2695 l 0,-0.01 z m -90.93945,0.041 c -0.20216,-0.024 -0.40865,0 -0.58398,0.1016 l 0,0 c -0.18087,0.096 -0.32743,0.2608 -0.40235,0.4356 -0.0773,0.1805 -0.0996,0.3665 -0.0996,0.5586 l 0.0391,34.1601 c 0,0.3842 0.10918,0.7644 0.30273,1.1192 l 0.002,0.01 0.004,0.01 c 0.21512,0.3688 0.47723,0.6707 0.79492,0.8828 l 4.13672,2.7715 0.0176,0.012 c 0.31482,0.1749 0.70864,0.2546 1.05469,0.088 0.18763,-0.086 0.35465,-0.2406 0.44531,-0.4219 0.0935,-0.1871 0.12305,-0.3842 0.12305,-0.5839 l 0,-14.3204 c 0,-0.042 0.004,-0.041 0.008,-0.066 0.0182,0 0.005,-0.018 0.0957,0.043 l 0.004,0 0.006,0 3.02929,1.9141 c 0.33245,0.2217 0.73462,0.3242 1.15821,0.3242 0.42359,0 0.8238,-0.1025 1.15625,-0.3242 l 5.59961,-3.7188 c 0.31467,-0.2097 0.56969,-0.5034 0.76172,-0.8554 l 0.006,-0.01 0.004,-0.01 c 0.18733,-0.3746 0.29102,-0.7602 0.29102,-1.1445 l 0,-14.1992 c 0,-0.3842 -0.10369,-0.77 -0.29102,-1.1446 -0.18981,-0.3797 -0.44614,-0.6952 -0.77148,-0.9121 l -5.81641,-3.8242 c -0.3225,-0.2418 -0.73508,-0.3217 -1.1582,-0.293 -0.39644,0 -0.77945,0.105 -1.09961,0.3184 l -0.0117,0.01 -2.94531,2.2187 -0.0137,0.012 c -0.11233,0.098 -0.2548,0.1563 -0.51172,0.1563 -0.23591,0 -0.40628,-0.054 -0.56055,-0.1563 l -0.002,0 -4.2168,-2.9433 c -0.15469,-0.1161 -0.35252,-0.1913 -0.55469,-0.2149 z m 30.96094,0.9082 0,0 c 0.26974,0 0.45597,0.058 0.60352,0.1563 l 0.002,0 4.96094,3.2422 c 0.15326,0.1032 0.29664,0.2651 0.42578,0.5234 l 0.0117,0.022 0.0137,0.021 c 0.14614,0.2297 0.20312,0.4241 0.20312,0.6113 l 0,21.4805 0,1.041 0.0254,-0.1582 c -0.0478,0.1433 -0.0664,0.2892 -0.0664,0.4375 l 0,0.7598 0,3 c 0,0.2024 -0.0513,0.4088 -0.17774,0.6406 l -0.006,0.01 -0.004,0.01 c -0.13585,0.2717 -0.28421,0.4654 -0.43555,0.5996 l -8.07422,5.8477 c -0.14755,0.098 -0.33182,0.1562 -0.60156,0.1562 -0.23667,0 -0.38267,-0.051 -0.5,-0.1386 l -0.006,0 -3.79492,-2.7168 c -0.1379,-0.1034 -0.29783,-0.2901 -0.45703,-0.5586 -0.12632,-0.2578 -0.1836,-0.4838 -0.1836,-0.6817 l 0,-3.3203 c 0,-0.1989 0.0558,-0.424 0.1836,-0.6836 0.15887,-0.2675 0.31942,-0.4534 0.45703,-0.5566 l 7.67773,-5.4375 0.01,-0.01 c 0.29768,-0.2315 0.54149,-0.5286 0.73047,-0.875 l 0.006,-0.01 0.004,-0.01 c 0.18733,-0.3747 0.29297,-0.7584 0.29297,-1.1426 l 0,-1.0801 0,-0.7207 c 0,-0.065 0.006,-0.1306 0.0234,-0.1992 l 0.0156,-0.059 0,-1.0625 c 0,-0.378 -0.21218,-0.8003 -0.57422,-0.9648 -0.36432,-0.1718 -0.77237,-0.058 -1.08203,0.1484 l -5.32031,3.5195 c -0.14755,0.098 -0.33377,0.1543 -0.60351,0.1543 -0.23667,0 -0.40784,-0.051 -0.5625,-0.1543 l -0.002,0 -3.07812,-1.998 c -0.16328,-0.1089 -0.30483,-0.2682 -0.43164,-0.4981 -0.12873,-0.2607 -0.18555,-0.4878 -0.18555,-0.6875 l 0,-11.1992 c 0,-0.2024 0.0532,-0.4088 0.17969,-0.6406 l 0.004,-0.01 0.004,-0.01 c 0.13019,-0.2604 0.27503,-0.4243 0.42969,-0.5274 l 9.31836,-6.1191 0.002,0 c 0.15466,-0.1031 0.32583,-0.1563 0.5625,-0.1563 z m 59.91015,0.043 0.0234,0 0.0234,0 c 0.24775,0 0.41149,0.049 0.52929,0.1211 l 0.002,0 3.99218,2.5566 c 0.15396,0.1032 0.29808,0.2661 0.42774,0.5254 l 0.0117,0.023 0.0137,0.022 c 0.14035,0.2206 0.17984,0.3928 0.16406,0.5664 l -0.002,0.023 0,1.2617 0,0.2813 0,0.2793 c 0,0.2007 -0.0553,0.427 -0.18555,0.6894 -0.12621,0.2275 -0.2694,0.3861 -0.43164,0.4942 l -8.83594,5.7187 -0.004,0 c -0.31823,0.2122 -0.57954,0.5135 -0.79493,0.8828 l -0.004,0.01 -0.002,0.01 c -0.19355,0.3549 -0.30079,0.7348 -0.30079,1.1191 l 0,3.6894 0.01,0.049 c 0.0659,0.3296 0.19564,0.6503 0.38086,0.959 0.19152,0.3192 0.42992,0.5826 0.72266,0.7656 l 2.9082,1.873 c 0.001,7e-4 0.003,-7e-4 0.004,0 0.32468,0.2155 0.71123,0.3242 1.11327,0.3242 0.42359,0 0.82576,-0.1026 1.1582,-0.3242 l 2.875,-1.8379 0.004,0 c 0.17244,-0.115 0.35259,-0.1795 0.56835,-0.1992 0.18995,-0.017 0.27783,0.021 0.34961,0.066 -0.007,0.017 -0.01,0.048 -0.15234,0.1426 l -7.44727,4.8047 -0.0156,0.012 c -0.10933,0.082 -0.26932,0.1387 -0.53906,0.1387 -0.26975,0 -0.45597,-0.056 -0.60351,-0.1543 l -0.002,0 -5.57617,-3.6504 -0.0156,-0.01 c -0.14598,-0.081 -0.29626,-0.2274 -0.44337,-0.4511 -0.12229,-0.253 -0.17967,-0.4769 -0.17969,-0.6719 l 0,-13.0391 c 0,-0.2011 0.053,-0.4067 0.17774,-0.6367 0.15607,-0.2648 0.32083,-0.4424 0.48047,-0.5488 l 3.18945,-2.0742 0.0996,0 0.0762,-0.076 0.79102,-0.5274 4.55078,-2.9531 0.008,0 c 0.0922,-0.057 0.16531,-0.1 0.20702,-0.1211 l 0.0254,0 0.0977,-0.043 c 0.15678,-0.07 0.32955,-0.098 0.55078,-0.078 l 0,-0.012 z m -90.94531,0.037 c -0.006,5e-4 -0.0346,-0.023 0.0273,0.024 l 0.008,0 4.25195,2.9687 0.004,0 c 0.32534,0.2169 0.71385,0.3242 1.11719,0.3242 0.43576,0 0.85378,-0.1281 1.16797,-0.4023 l 0.002,0 2.86719,-2.1602 c 0.15466,-0.1031 0.32583,-0.1562 0.5625,-0.1562 l 0.0195,0 0.0195,0 c 0.2626,-0.02 0.40329,0.028 0.50195,0.1015 l 0.0117,0.012 5.84961,3.8457 c 0.15466,0.1031 0.30146,0.265 0.43164,0.5253 0.13267,0.2654 0.18555,0.4969 0.18555,0.6993 l 0,14.1972 c 0,0.1997 -0.0549,0.4268 -0.1836,0.6875 -0.12681,0.2299 -0.27031,0.3873 -0.43359,0.4961 l -5.59961,3.7207 c -0.14755,0.098 -0.33182,0.1582 -0.60156,0.1582 -0.26974,0 -0.45597,-0.06 -0.60352,-0.1582 l -0.006,0 -3.0332,-1.914 c -0.001,-7e-4 -0.003,7e-4 -0.004,0 -0.32137,-0.2131 -0.74368,-0.3235 -1.11132,-0.166 l -0.0137,0.012 -0.0137,0.01 c -0.18932,0.095 -0.33866,0.2688 -0.41601,0.4493 -0.0773,0.1805 -0.0996,0.3644 -0.0996,0.5566 l 0,14.3203 c 0,0.073 -0.009,0.093 -0.0137,0.1074 0.0191,-0.01 -0.006,-0.01 -0.10742,-0.057 l -4.10156,-2.7461 c -0.15996,-0.1067 -0.32412,-0.2851 -0.48047,-0.5508 -0.12315,-0.2284 -0.17773,-0.4329 -0.17773,-0.6328 l -0.0391,-34.1602 c 2.5e-4,-0.063 0.006,-0.078 0.0117,-0.1035 l 0,-0.01 z m 29.53907,1.7695 c -0.38328,0 -0.74861,0.081 -1.06641,0.2579 l -0.0117,0.01 -1.9375,1.211 -0.006,0 c -0.31823,0.2121 -0.57954,0.5154 -0.79492,0.8847 l -0.004,0.01 -0.002,0.01 c -0.19355,0.3548 -0.30078,0.7368 -0.30078,1.1211 l 0,11.3984 c 0,0.3842 0.10368,0.7699 0.29101,1.1445 l 0.006,0.01 0.004,0.01 c 0.19203,0.352 0.44705,0.6476 0.76172,0.8574 l 0.006,0 0.33594,0.2109 0.0117,0.01 c 0.32247,0.1791 0.69454,0.2617 1.08399,0.2617 0.42359,0 0.8238,-0.1026 1.15625,-0.3242 l 0.002,0 2.19922,-1.4805 c 0.31296,-0.2089 0.56628,-0.5018 0.75781,-0.8516 0.21672,-0.3745 0.34375,-0.7661 0.34375,-1.1621 l -0.0801,-11.0781 c 0,-0.3906 -0.13161,-0.7723 -0.34961,-1.123 -0.19121,-0.3732 -0.44749,-0.6863 -0.78711,-0.875 l -0.43555,-0.2793 -0.0234,-0.01 c -0.34963,-0.1749 -0.74833,-0.2372 -1.16015,-0.209 l 0,-0.014 z m 58.29296,0.795 c -0.3984,0 -0.78063,0.1087 -1.10352,0.3203 -0.0697,0.037 -0.13874,0.074 -0.21093,0.1465 l 0.13086,-0.096 -0.10157,0.053 -0.0195,0.012 c -0.31063,0.1942 -0.54218,0.4949 -0.70508,0.8496 -0.16374,0.3302 -0.25,0.6884 -0.25,1.0547 l 0,5.8399 c 0,0.3842 0.12493,0.7935 0.46095,1.0175 l 0.0391,0.025 0.043,0.018 c 0.36829,0.1579 0.78976,0.05 1.11133,-0.1641 l 0.002,0 2.98829,-1.9511 0.002,0 c 0.28571,-0.1791 0.5189,-0.4343 0.6875,-0.7364 0.18151,-0.3051 0.30993,-0.6238 0.375,-0.9492 l 0.01,-0.047 0,-2.291 c 0,-0.3912 -0.13096,-0.7739 -0.34961,-1.125 -0.18834,-0.3679 -0.43418,-0.6788 -0.75194,-0.8906 l -0.006,0 -1.19531,-0.7559 c -0.33245,-0.2216 -0.73265,-0.3242 -1.15625,-0.3242 l 0,-0.01 z m -3.32031,0.1601 c -0.0426,0 -0.0572,0.032 -0.0957,0.041 l -0.0391,0 0.13476,-0.041 z m -54.91797,0.039 c 0.27007,-0.021 0.47458,0.019 0.65039,0.1055 l 0.41602,0.2656 0.0117,0.01 c 0.13279,0.074 0.26878,0.2095 0.39648,0.4649 l 0.0117,0.023 0.0137,0.022 c 0.14614,0.2296 0.20118,0.426 0.20118,0.6133 l 0.0801,11.082 c -3.1e-4,0.1869 -0.0582,0.4041 -0.21093,0.666 l -0.004,0.01 -0.004,0.01 c -0.12797,0.2347 -0.27217,0.3937 -0.4375,0.5039 l -0.002,0 -2.19922,1.4785 c -0.14755,0.098 -0.33182,0.1562 -0.60156,0.1562 -0.25056,0 -0.44013,-0.049 -0.59766,-0.1367 l -0.28515,-0.1777 -0.002,0 c -0.16244,-0.1088 -0.30536,-0.2672 -0.43164,-0.4961 -0.12872,-0.2607 -0.18359,-0.4879 -0.18359,-0.6875 l 0,-11.3984 c 0,-0.2 0.0526,-0.4045 0.17578,-0.6329 0.15657,-0.2669 0.32021,-0.4436 0.48047,-0.5507 l 1.88672,-1.1778 c 0.15724,-0.087 0.34592,-0.1367 0.5957,-0.1367 l 0.0195,0 0.0195,0 0,-0.016 z m -22.64257,0.3242 0,0 c -0.42412,0 -0.83966,0.162 -1.13672,0.459 -0.25753,0.2576 -0.47442,0.57 -0.6543,0.9297 l -0.006,0.016 -0.008,0.016 c -0.1542,0.37 -0.23828,0.7443 -0.23828,1.1133 l 0,10.6406 c 0,0.3842 0.10564,0.768 0.29297,1.1426 l 0.008,0.014 0.008,0.016 c 0.21016,0.3603 0.44709,0.6532 0.73242,0.8672 l 0.004,0 4.54883,3.2715 c 0.15491,0.1205 0.3156,0.2163 0.50781,0.2676 0.19221,0.051 0.42876,0.041 0.62305,-0.057 0.18931,-0.095 0.33866,-0.2687 0.41601,-0.4492 0.0773,-0.1805 0.0996,-0.3645 0.0996,-0.5566 l 0,-13.4004 c 0,-0.3842 -0.10564,-0.77 -0.29297,-1.1446 -0.1923,-0.3846 -0.45748,-0.6996 -0.80469,-0.8925 l 0.0352,0.022 -3,-2 c -0.3292,-0.2195 -0.73048,-0.306 -1.13476,-0.2774 z m 80.88085,0.4688 0,0.01 c 0.26974,0 0.45401,0.058 0.60156,0.1562 l 0.006,0 1.1953,0.7559 c 0.15467,0.1031 0.29951,0.2669 0.4297,0.5273 l 0.0117,0.021 0.0137,0.023 c 0.14614,0.2296 0.20117,0.4241 0.20117,0.6114 l 0,2.166 c -0.0423,0.1969 -0.11821,0.4008 -0.24804,0.6172 l -0.004,0.01 -0.004,0.01 c -0.0974,0.1754 -0.21093,0.2903 -0.34962,0.377 l -0.004,0 -3.00586,1.9629 -0.002,0 c -0.0878,0.059 -0.0728,0.039 -0.0918,0.043 -0.006,-0.016 -0.01,0.01 -0.01,-0.1074 l 0,-5.8398 c 0,-0.2175 0.046,-0.4142 0.14649,-0.6153 l 0.004,-0.01 0.004,-0.01 c 0.10304,-0.2267 0.21542,-0.3489 0.32813,-0.4199 0,0 0.002,0 0.002,0 l 0.11133,-0.057 0.0566,-0.057 c -0.0323,0.032 -0.0331,0.026 -0.01,0.014 l 0.0274,-0.014 0.0273,-0.018 c 0.15466,-0.1031 0.32583,-0.1562 0.5625,-0.1562 z m -80.86328,0.5234 0,0 0.0195,0 0.0215,0 c 0.22722,-0.019 0.37749,0.021 0.52148,0.1172 l 3.01563,2.0117 0.0195,0.01 c 0.13279,0.074 0.26683,0.2094 0.39453,0.4648 0.13267,0.2654 0.1875,0.4949 0.1875,0.6973 l 0,13.4004 c 0,0.015 -0.001,0.01 -0.002,0.022 -0.0149,-0.01 -0.014,0 -0.0312,-0.016 l -0.008,-0.01 -4.5586,-3.2813 c -0.1376,-0.1031 -0.29816,-0.2872 -0.45703,-0.5547 -0.12777,-0.2596 -0.18359,-0.4847 -0.18359,-0.6836 l 0,-10.6406 c 0,-0.2135 0.052,-0.4509 0.16015,-0.7148 0.13721,-0.2695 0.2886,-0.4879 0.45313,-0.6524 0.12494,-0.125 0.23837,-0.1738 0.44726,-0.1738 z m 24.56641,20.9336 c -0.28736,-0.033 -0.5804,0.077 -0.81641,0.2344 l -0.006,0 -1.77539,1.25 -0.01,0.01 c -0.29769,0.2315 -0.54345,0.5286 -0.73242,0.875 l -0.004,0.01 -0.004,0.01 c -0.18733,0.3747 -0.29297,0.7602 -0.29297,1.1445 l -0.0391,3.4766 c 0,0.3843 0.10564,0.7679 0.29297,1.1425 l 0.006,0.016 0.01,0.014 c 0.21016,0.3603 0.44513,0.6532 0.73046,0.8672 l 0.006,0 1.08789,0.7656 -0.043,-0.033 c 0.2655,0.2323 0.57238,0.3994 0.90234,0.4727 0.30699,0.068 0.6344,0.091 0.92773,-0.1289 l 0.0274,-0.022 0.0254,-0.025 c 0.21861,-0.2186 0.30409,-0.4866 0.36719,-0.793 0.0911,-0.2876 0.14062,-0.5949 0.14062,-0.9199 l 0,-7.2793 c 0,-0.1921 -0.0242,-0.3781 -0.10156,-0.5586 -0.0773,-0.1805 -0.2267,-0.3545 -0.41602,-0.4492 l 0,0.01 c -0.0922,-0.046 -0.18741,-0.073 -0.2832,-0.084 z m -0.20703,1.0176 c 0.004,0.027 0.008,0.026 0.008,0.072 l 0,7.2793 c 0,0.2479 -0.035,0.4626 -0.0957,0.6446 l -0.01,0.027 -0.006,0.029 c -0.0347,0.1736 -0.0703,0.2178 -0.084,0.2441 0.008,-0.01 0.0421,-0.01 -0.0762,-0.033 -0.15004,-0.033 -0.29978,-0.107 -0.46094,-0.248 l -0.0195,-0.018 -1.08789,-0.7656 c -0.13761,-0.1032 -0.29816,-0.2891 -0.45703,-0.5567 -0.12778,-0.2595 -0.1836,-0.4845 -0.1836,-0.6835 l 0.0391,-3.4786 c 0,-0.1997 0.0568,-0.4268 0.18555,-0.6875 0.12909,-0.2345 0.28049,-0.4149 0.45899,-0.5546 l 1.73437,-1.2227 c 0.0923,-0.062 0.05,-0.045 0.0547,-0.049 z"
       id="path4217"
       inkscape:connector-curvature="0" />
    <text
       xml:space="preserve"
       style="font-style:normal;font-weight:normal;font-size:40px;line-height:125%;font-family:sans-serif;letter-spacing:0px;word-spacing:0px;fill:#000000;fill-opacity:1;stroke:none;stroke-width:1px;stroke-linecap:butt;stroke-linejoin:miter;stroke-opacity:1"
       x="19.655172"
       y="1039.9484"
       id="text4253"
       sodipodi:linespacing="125%"><tspan
         sodipodi:role="line"
         id="tspan4255"
         x="19.655172"
         y="1039.9484" /></text>
    <g
       style="font-style:normal;font-weight:normal;font-size:40px;line-height:125%;font-family:sans-serif;letter-spacing:0px;word-spacing:0px;fill:url(#linearGradient4171);fill-opacity:1;stroke:none;stroke-width:1px;stroke-linecap:butt;stroke-linejoin:miter;stroke-opacity:1"
       id="text4257">
      <path
         d="m 98.878751,1041.5421 q 0.04,0.44 -0.24,0.56 -0.24,0.16 -0.6,-0.08 l -4.36,-2.96 q -0.36,-0.24 -0.6,-0.72 -0.24,-0.48 -0.24,-0.92 l 0,-12.28 q 0,-0.44 -0.28,-0.88 -0.24,-0.48 -0.6,-0.72 l -2.64,-1.8 q -0.32,-0.24 -0.84,-0.24 -0.52,0 -0.84,0.24 l -1.16,0.76 q -0.32,0.24 -0.6,0.72 -0.24,0.48 -0.24,0.92 l 0,9.96 q 0,0.44 -0.28,0.92 -0.24,0.44 -0.56,0.68 l -4.4,2.96 q -0.32,0.24 -0.6,0.12 -0.24,-0.12 -0.24,-0.56 l 0.04,-34.88 q 0,-0.44 0.24,-0.56 0.24,-0.16 0.6,0.08 l 2.8,1.88 q 0.36,0.24 0.84,0.24 0.52,0 0.88,-0.24 l 2.36,-1.6 q 0.36,-0.24 0.84,-0.24 0.52,0 0.88,0.24 l 6.88,4.64 q 0.36,0.24 0.6,0.72 0.24,0.44 0.24,0.88 l 0,5.2 q 0,0.44 -0.24,0.92 -0.24,0.48 -0.6,0.68 l -2.32,1.56 q -0.36,0.24 -0.36,0.6 0,0.32 0.36,0.52 l 4.4,3 q 0.32,0.24 0.56,0.72 0.28,0.44 0.28,0.88 l 0.04,18.08 z m -13.24,-21.24 q 0,0.44 0.24,0.56 0.28,0.12 0.6,-0.12 l 3.44,-2.32 q 0.36,-0.24 0.6,-0.68 0.28,-0.48 0.28,-0.92 l 0,-5.72 q 0,-0.44 -0.28,-0.88 -0.24,-0.48 -0.6,-0.72 l -3.44,-2.32 q -0.32,-0.24 -0.6,-0.12 -0.24,0.12 -0.24,0.56 l 0,12.68 z"
         style="font-style:normal;font-variant:normal;font-weight:normal;font-stretch:normal;font-family:'New Gothic Textura';-inkscape-font-specification:'New Gothic Textura';fill-opacity:1.0;fill:url(#linearGradient4171)"
         id="path4147" />
      <path
         d="m 108.23375,1036.6621 q -0.36,-0.24 -0.64,-0.12 -0.24,0.12 -0.24,0.56 l 0,14.32 q 0,0.44 -0.28,0.56 -0.24,0.12 -0.6,-0.08 l -4.12,-2.76 q -0.36,-0.24 -0.64,-0.72 -0.24,-0.44 -0.24,-0.88 l -0.04,-34.16 q 0,-0.44 0.24,-0.56 0.28,-0.16 0.6,0.08 l 4.24,2.96 q 0.36,0.24 0.84,0.24 0.52,0 0.84,-0.28 l 2.92,-2.2 q 0.36,-0.24 0.84,-0.24 0.52,-0.04 0.84,0.2 l 5.84,3.84 q 0.36,0.24 0.6,0.72 0.24,0.48 0.24,0.92 l 0,14.2 q 0,0.44 -0.24,0.92 -0.24,0.44 -0.6,0.68 l -5.6,3.72 q -0.36,0.24 -0.88,0.24 -0.52,0 -0.88,-0.24 l -3.04,-1.92 z m -0.12,-19.48 q -0.32,0.32 -0.56,0.8 -0.2,0.48 -0.2,0.92 l 0,10.64 q 0,0.44 0.24,0.92 0.28,0.48 0.6,0.72 l 4.56,3.28 q 0.36,0.28 0.6,0.16 0.24,-0.12 0.24,-0.56 l 0,-13.4 q 0,-0.44 -0.24,-0.92 -0.24,-0.48 -0.6,-0.68 l -3,-2 q -0.36,-0.24 -0.84,-0.2 -0.48,0 -0.8,0.32 z"
         style="font-style:normal;font-variant:normal;font-weight:normal;font-stretch:normal;font-family:'New Gothic Textura';-inkscape-font-specification:'New Gothic Textura';fill-opacity:1.0;fill:url(#linearGradient4171)"
         id="path4149" />
      <path
         d="m 139.70063,1039.2621 0,1.04 q -0.04,0.12 -0.04,0.28 l 0,0.76 0,3 q 0,0.44 -0.24,0.88 -0.24,0.48 -0.56,0.76 l -8.12,5.88 q -0.36,0.24 -0.88,0.24 -0.48,0 -0.8,-0.24 l -3.8,-2.72 q -0.32,-0.24 -0.6,-0.72 -0.24,-0.48 -0.24,-0.92 l 0,-3.32 q 0,-0.44 0.24,-0.92 0.28,-0.48 0.6,-0.72 l 7.68,-5.44 q 0.36,-0.28 0.6,-0.72 0.24,-0.48 0.24,-0.92 l 0,-1.08 0,-0.72 q 0,-0.16 0.04,-0.32 l 0,-1 q 0,-0.4 -0.28,-0.52 -0.24,-0.12 -0.6,0.12 l -5.32,3.52 q -0.36,0.24 -0.88,0.24 -0.48,0 -0.84,-0.24 l -3.08,-2 q -0.36,-0.24 -0.6,-0.68 -0.24,-0.48 -0.24,-0.92 l 0,-11.2 q 0,-0.44 0.24,-0.88 0.24,-0.48 0.6,-0.72 l 9.32,-6.12 q 0.36,-0.24 0.84,-0.24 0.52,0 0.88,0.24 l 4.96,3.24 q 0.36,0.24 0.6,0.72 0.28,0.44 0.28,0.88 l 0,21.48 z m -6.76,-9.04 q 0.36,-0.24 0.6,-0.68 0.28,-0.48 0.28,-0.92 l -0.08,-11.08 q 0,-0.44 -0.28,-0.88 -0.24,-0.48 -0.6,-0.68 l -0.44,-0.28 q -0.4,-0.2 -0.92,-0.16 -0.48,0 -0.84,0.2 l -1.92,1.2 q -0.36,0.24 -0.64,0.72 -0.24,0.44 -0.24,0.88 l 0,11.4 q 0,0.44 0.24,0.92 0.24,0.44 0.6,0.68 l 0.32,0.2 q 0.36,0.2 0.84,0.2 0.52,0 0.88,-0.24 l 2.2,-1.48 z m 0.48,17.8 q 0.16,-0.16 0.24,-0.56 0.12,-0.36 0.12,-0.8 l 0,-7.28 q 0,-0.44 -0.24,-0.56 -0.24,-0.12 -0.6,0.12 l -1.76,1.24 q -0.36,0.28 -0.6,0.72 -0.24,0.48 -0.24,0.92 l -0.04,3.48 q 0,0.44 0.24,0.92 0.28,0.48 0.6,0.72 l 1.08,0.76 q 0.32,0.28 0.68,0.36 0.36,0.08 0.52,-0.04 z"
         style="font-style:normal;font-variant:normal;font-weight:normal;font-stretch:normal;font-family:'New Gothic Textura';-inkscape-font-specification:'New Gothic Textura';fill-opacity:1.0;fill:url(#linearGradient4171)"
         id="path4151" />
      <path
         d="m 157.615,1032.8221 q 0.36,-0.24 0.8,-0.28 0.44,-0.04 0.72,0.16 0.28,0.2 0.2,0.52 -0.04,0.28 -0.4,0.52 l -6.84,4.8 q -0.32,0.24 -0.84,0.24 -0.48,0 -0.84,-0.28 l -7.36,-5.24 q -0.36,-0.24 -0.6,-0.72 -0.24,-0.48 -0.24,-0.92 l 0,-20.04 q 0,-0.44 0.24,-0.88 0.24,-0.48 0.6,-0.76 l 10.04,-7.04 q 0.36,-0.24 0.84,-0.24 0.52,0 0.88,0.24 l 4.2,2.96 q 0.32,0.24 0.32,0.6 0,0.32 -0.32,0.56 l -2.8,1.96 q -0.36,0.28 -0.88,0.28 -0.48,0 -0.84,-0.28 l -2.88,-2 q -0.36,-0.24 -0.88,-0.24 -0.48,0 -0.8,0.24 l -0.88,0.6 q -0.36,0.24 -0.6,0.72 -0.24,0.48 -0.24,0.92 l 0,20.44 q 0,0.44 0.24,0.92 0.24,0.44 0.6,0.72 l 4.56,3.16 q 0.32,0.24 0.8,0.24 0.52,0 0.88,-0.24 l 2.32,-1.64 z"
         style="font-style:normal;font-variant:normal;font-weight:normal;font-stretch:normal;font-family:'New Gothic Textura';-inkscape-font-specification:'New Gothic Textura';fill-opacity:1.0;fill:url(#linearGradient4171)"
         id="path4153" />
      <path
         d="m 179.62438,1037.4621 q 0,0.44 -0.24,0.92 -0.24,0.48 -0.6,0.68 l -4.16,2.8 q -0.36,0.24 -0.6,0.12 -0.24,-0.12 -0.24,-0.56 l -0.04,-21.48 q 0,-0.44 -0.24,-0.88 -0.24,-0.48 -0.6,-0.72 l -2.8,-1.92 q -0.36,-0.24 -0.84,-0.24 -0.48,0 -0.8,0.2 -0.32,0.24 -0.56,0.72 -0.2,0.44 -0.2,0.88 l -0.04,20.2 q 0,0.44 -0.24,0.6 -0.24,0.12 -0.6,-0.12 l -4.12,-2.6 q -0.36,-0.24 -0.64,-0.68 -0.24,-0.48 -0.24,-0.92 l 0,-27.32 q 0,-0.44 0.24,-0.92 0.24,-0.48 0.6,-0.68 l 4.16,-2.72 q 0.36,-0.24 0.6,-0.12 0.24,0.12 0.24,0.56 l 0.04,11.24 q 0,0.44 0.24,0.56 0.24,0.12 0.6,-0.12 l 2.96,-1.96 q 0.36,-0.24 0.84,-0.24 0.52,0 0.88,0.24 l 5.56,3.64 q 0.36,0.24 0.6,0.72 0.24,0.44 0.24,0.88 l 0,19.24 z"
         style="font-style:normal;font-variant:normal;font-weight:normal;font-stretch:normal;font-family:'New Gothic Textura';-inkscape-font-specification:'New Gothic Textura';fill-opacity:1.0;fill:url(#linearGradient4171)"
         id="path4155" />
      <path
         d="m 188.01688,1027.8221 0,3.64 q 0.08,0.4 0.32,0.8 0.24,0.4 0.56,0.6 l 2.92,1.88 q 0.36,0.24 0.84,0.24 0.52,0 0.88,-0.24 l 2.88,-1.84 q 0.36,-0.24 0.8,-0.28 0.44,-0.04 0.72,0.16 0.28,0.16 0.2,0.44 -0.04,0.28 -0.4,0.52 l -7.44,4.8 q -0.32,0.24 -0.84,0.24 -0.52,0 -0.88,-0.24 l -5.56,-3.64 q -0.36,-0.2 -0.64,-0.64 -0.24,-0.48 -0.24,-0.92 l 0,-13.04 q 0,-0.44 0.24,-0.88 0.28,-0.48 0.64,-0.72 l 3.32,-2.16 q 0.04,0 0.04,0 0.04,-0.04 0.08,-0.04 l 0.72,-0.48 4.56,-2.96 q 0.32,-0.2 0.4,-0.2 0.36,-0.16 0.8,-0.12 0.48,0 0.8,0.2 l 4,2.56 q 0.36,0.24 0.6,0.72 0.28,0.44 0.24,0.88 l 0,1.24 0,0.28 0,0.28 q 0,0.44 -0.24,0.92 -0.24,0.44 -0.6,0.68 l -8.84,5.72 q -0.36,0.24 -0.64,0.72 -0.24,0.44 -0.24,0.88 z m 0,-3.8 q 0,0.44 0.24,0.6 0.28,0.12 0.64,-0.12 l 3,-1.96 q 0.32,-0.2 0.52,-0.56 0.24,-0.4 0.32,-0.8 l 0,-2.24 q 0,-0.44 -0.28,-0.88 -0.24,-0.48 -0.6,-0.72 l -1.2,-0.76 q -0.36,-0.24 -0.88,-0.24 -0.48,0 -0.84,0.24 -0.08,0.04 -0.12,0.08 0,0 -0.08,0.04 -0.32,0.2 -0.52,0.64 -0.2,0.4 -0.2,0.84 l 0,5.84 z"
         style="font-style:normal;font-variant:normal;font-weight:normal;font-stretch:normal;font-family:'New Gothic Textura';-inkscape-font-specification:'New Gothic Textura';fill-opacity:1.0;fill:url(#linearGradient4171)"
         id="path4157" />
      <path
         d="m 210.64125,1018.0221 q 0,0.44 0.28,0.72 0.32,0.28 0.76,0.28 l 6.12,0 q 0.44,0 0.48,0.2 0.04,0.16 -0.32,0.4 l -2.32,1.52 q -0.36,0.24 -0.92,0.4 -0.52,0.16 -0.96,0.16 l -2.08,0 q -0.44,0 -0.76,0.32 -0.28,0.28 -0.28,0.72 l -0.08,25.32 q 0,0.44 -0.24,0.56 -0.24,0.16 -0.6,-0.08 l -4.12,-2.68 q -0.32,-0.24 -0.6,-0.72 -0.24,-0.44 -0.24,-0.88 l 0,-21.52 q 0,-0.44 -0.32,-0.72 -0.28,-0.32 -0.72,-0.32 l -3.8,0 q -0.44,0 -0.48,-0.16 -0.04,-0.16 0.32,-0.4 l 2.32,-1.52 q 0.36,-0.24 0.88,-0.4 0.52,-0.2 0.88,-0.2 0.4,0 0.64,-0.28 0.28,-0.28 0.28,-0.72 l 0,-7.76 q 0,-0.44 0.24,-0.88 0.28,-0.48 0.6,-0.72 l 8.88,-5.8 q 0.36,-0.24 0.84,-0.24 0.52,0 0.88,0.24 l 3.88,2.56 q 0.36,0.2 0.36,0.56 0,0.32 -0.36,0.56 l -2.72,1.8 q -0.32,0.2 -0.84,0.2 -0.52,0 -0.88,-0.2 l -2.56,-1.72 q -0.36,-0.24 -0.88,-0.24 -0.48,0 -0.8,0.2 -0.32,0.2 -0.56,0.68 -0.2,0.44 -0.2,0.88 l 0,9.88 z"
         style="font-style:normal;font-variant:normal;font-weight:normal;font-stretch:normal;font-family:'New Gothic Textura';-inkscape-font-specification:'New Gothic Textura';fill-opacity:1.0;fill:url(#linearGradient4171)"
         id="path4159" />
    </g>
  </g>
</svg>
