<?xml version="1.0" encoding="UTF-8" standalone="no"?>
<!-- Created with Inkscape (http://www.inkscape.org/) -->

<svg
   xmlns:dc="http://purl.org/dc/elements/1.1/"
   xmlns:cc="http://creativecommons.org/ns#"
   xmlns:rdf="http://www.w3.org/1999/02/22-rdf-syntax-ns#"
   xmlns:svg="http://www.w3.org/2000/svg"
   xmlns="http://www.w3.org/2000/svg"
   xmlns:sodipodi="http://sodipodi.sourceforge.net/DTD/sodipodi-0.dtd"
   xmlns:inkscape="http://www.inkscape.org/namespaces/inkscape"
   width="300"
   height="50"
   viewBox="0 0 300 50.000001"
   id="svg2"
   version="1.1"
   inkscape:version="0.91 r13725"
   sodipodi:docname="logo_original.svg">
  <defs
     id="defs4" />
  <sodipodi:namedview
     id="base"
     pagecolor="#375a7f"
     bordercolor="#666666"
     borderopacity="1.0"
     inkscape:pageopacity="0"
     inkscape:pageshadow="2"
     inkscape:zoom="3.8666667"
     inkscape:cx="112.62931"
     inkscape:cy="25"
     inkscape:document-units="px"
     inkscape:current-layer="layer1"
     showgrid="false"
     inkscape:window-width="1280"
     inkscape:window-height="745"
     inkscape:window-x="0"
     inkscape:window-y="33"
     inkscape:window-maximized="1"
     units="px" />
  <metadata
     id="metadata7">
    <rdf:RDF>
      <cc:Work
         rdf:about="">
        <dc:format>image/svg+xml</dc:format>
        <dc:type
           rdf:resource="http://purl.org/dc/dcmitype/StillImage" />
        <dc:title></dc:title>
      </cc:Work>
    </rdf:RDF>
  </metadata>
  <g
     inkscape:label="Layer 1"
     inkscape:groupmode="layer"
     id="layer1"
     transform="translate(0,-1002.3621)">
    <path
       style="color:#000000;font-style:normal;font-variant:normal;font-weight:normal;font-stretch:normal;font-size:medium;line-height:125%;font-family:'New Gothic Textura';-inkscape-font-specification:'New Gothic Textura';text-indent:0;text-align:start;text-decoration:none;text-decoration-line:none;text-decoration-style:solid;text-decoration-color:#000000;letter-spacing:0px;word-spacing:0px;text-transform:none;direction:ltr;block-progression:tb;writing-mode:lr-tb;baseline-shift:baseline;text-anchor:start;white-space:normal;clip-rule:nonzero;display:inline;overflow:visible;visibility:visible;opacity:1;isolation:auto;mix-blend-mode:normal;color-interpolation:sRGB;color-interpolation-filters:linearRGB;solid-color:#000000;solid-opacity:1;fill:#ffffff;fill-opacity:1;fill-rule:nonzero;stroke:none;stroke-width:1;stroke-linecap:butt;stroke-linejoin:miter;stroke-miterlimit:4;stroke-dasharray:none;stroke-dashoffset:0;stroke-opacity:1;color-rendering:auto;image-rendering:auto;shape-rendering:auto;text-rendering:auto;enable-background:accumulate"
       d="M 139.76172 -0.23828125 C 139.35988 -0.23828125 138.97304 -0.13326875 138.64844 0.08203125 L 129.75586 5.890625 L 129.74219 5.9003906 C 129.45685 6.1143906 129.21993 6.4092313 129.00977 6.7695312 L 129.00781 6.7792969 L 129.00391 6.7890625 C 128.81036 7.1438625 128.70314 7.5240031 128.70312 7.9082031 L 128.70312 15.667969 C 128.70312 15.855269 128.66242 15.941056 128.56836 16.035156 L 128.55469 16.048828 L 128.54297 16.0625 C 128.47227 16.1445 128.4332 16.167969 128.2832 16.167969 C 127.95554 16.167969 127.61424 16.254937 127.23828 16.398438 C 126.86423 16.515048 126.53056 16.664157 126.24609 16.853516 L 123.92773 18.375 L 123.92578 18.375 C 123.78089 18.472 123.6594 18.563966 123.55273 18.697266 C 123.44607 18.830666 123.33322 19.0594 123.39648 19.3125 C 123.46218 19.575 123.69827 19.729556 123.86523 19.785156 C 124.0322 19.841156 124.18631 19.849609 124.36328 19.849609 L 128.16211 19.849609 C 128.33423 19.849609 128.40466 19.8846 128.50586 20 L 128.52734 20.025391 L 128.55273 20.046875 C 128.66839 20.148075 128.70312 20.218525 128.70312 20.390625 L 128.70312 41.910156 C 128.70312 42.294456 128.81036 42.674397 129.00391 43.029297 L 129.00781 43.039062 L 129.00977 43.048828 C 129.21993 43.409128 129.45685 43.702016 129.74219 43.916016 L 129.75586 43.925781 L 133.89062 46.615234 C 134.05184 46.722034 134.22405 46.805131 134.42578 46.832031 C 134.61861 46.858031 134.83374 46.804972 135.00586 46.701172 C 135.18252 46.604172 135.32866 46.445438 135.40234 46.273438 C 135.47944 46.093638 135.50185 45.91015 135.50195 45.71875 L 135.58203 20.398438 C 135.58203 20.211137 135.62273 20.12535 135.7168 20.03125 C 135.84911 19.89895 135.95093 19.857422 136.12305 19.857422 L 138.20312 19.857422 C 138.55706 19.857422 138.92404 19.794481 139.30859 19.675781 C 139.71337 19.559481 140.06318 19.412597 140.35742 19.216797 L 140.35938 19.216797 L 142.67773 17.697266 L 142.67969 17.697266 C 142.82458 17.600266 142.94607 17.506447 143.05273 17.373047 C 143.157 17.242747 143.25739 17.019638 143.20312 16.773438 C 143.14982 16.540538 142.95185 16.343131 142.77539 16.269531 C 142.59525 16.194531 142.42673 16.179688 142.24219 16.179688 L 136.12305 16.179688 C 135.94435 16.179688 135.83204 16.13275 135.71094 16.03125 C 135.62534 15.94125 135.58203 15.858988 135.58203 15.679688 L 135.58203 5.8007812 C 135.58203 5.5868813 135.63283 5.3701719 135.73633 5.1386719 C 135.86731 4.8800719 136.00036 4.7309625 136.10742 4.6640625 C 136.22547 4.5900625 136.39202 4.5410156 136.64258 4.5410156 C 136.91232 4.5410156 137.09854 4.5989656 137.24609 4.6972656 L 139.82031 6.4277344 L 139.83984 6.4375 C 140.16918 6.6205 140.55212 6.7011719 140.96289 6.7011719 C 141.37366 6.7011719 141.75181 6.6212281 142.06836 6.4238281 L 142.07227 6.4238281 L 144.79883 4.6210938 L 144.80078 4.6210938 C 145.12612 4.4041937 145.38281 4.0454312 145.38281 3.6445312 C 145.38281 3.2379312 145.11696 2.8416844 144.76562 2.6464844 L 144.79883 2.6660156 L 140.91992 0.10742188 C 140.58747 -0.11417812 140.18531 -0.21484375 139.76172 -0.21484375 L 139.76172 -0.23828125 z M 78.376953 -0.22070312 L 78.376953 -0.19921875 C 77.97362 -0.19921875 77.585104 -0.0919 77.259766 0.125 L 77.253906 0.125 L 67.199219 7.1738281 L 67.189453 7.1835938 C 66.885179 7.4201937 66.641828 7.7367219 66.455078 8.1074219 C 66.264061 8.4601219 66.15625 8.83725 66.15625 9.21875 L 66.15625 29.259766 C 66.15625 29.644066 66.261889 30.027744 66.449219 30.402344 C 66.639033 30.782044 66.893412 31.097553 67.21875 31.314453 L 74.548828 36.533203 C 74.873835 36.786003 75.278091 36.918069 75.695312 36.917969 C 76.118903 36.917969 76.518603 36.816125 76.835938 36.578125 L 83.654297 31.794922 C 83.952132 31.596322 84.187826 31.314531 84.251953 30.957031 C 84.330453 30.591431 84.167852 30.146441 83.867188 29.931641 C 83.56689 29.717141 83.188232 29.647341 82.810547 29.681641 C 82.439664 29.715641 82.086857 29.837969 81.779297 30.042969 L 81.773438 30.042969 L 81.767578 30.042969 L 79.458984 31.675781 C 79.458984 31.675781 79.457031 31.675781 79.457031 31.675781 C 79.3097 31.773781 79.124393 31.830078 78.855469 31.830078 C 78.618802 31.830078 78.472802 31.779106 78.355469 31.691406 L 78.349609 31.681641 L 73.796875 28.527344 C 73.618955 28.387644 73.468588 28.206756 73.339844 27.972656 C 73.212055 27.713056 73.15625 27.486109 73.15625 27.287109 L 73.15625 6.8476562 C 73.15625 6.6451563 73.21108 6.4156906 73.34375 6.1503906 C 73.473936 5.8899906 73.618775 5.7262469 73.773438 5.6230469 L 73.775391 5.6230469 L 74.667969 5.015625 L 74.675781 5.0039062 C 74.793115 4.9159063 74.939115 4.8632812 75.175781 4.8632812 C 75.445525 4.8632812 75.631747 4.9213312 75.779297 5.0195312 L 78.628906 6.9980469 C 78.953913 7.2507469 79.358168 7.3828125 79.775391 7.3828125 C 80.211801 7.3828125 80.6308 7.2562469 80.962891 6.9980469 L 80.943359 7.015625 L 83.75 5.0507812 L 83.755859 5.0410156 C 84.054526 4.8170156 84.275391 4.4620312 84.275391 4.0820312 C 84.275391 3.6938313 84.065193 3.3140312 83.755859 3.0820312 L 83.75 3.0703125 L 79.539062 0.10351562 L 79.533203 0.10351562 C 79.200753 -0.11808437 78.800543 -0.22070312 78.376953 -0.22070312 z M 91.806641 -0.18945312 C 91.519324 -0.222125 91.226095 -0.11205312 90.990234 0.044921875 L 86.863281 2.7421875 C 86.516073 2.9350875 86.250893 3.2501656 86.058594 3.6347656 C 85.871264 4.0094656 85.765625 4.3949969 85.765625 4.7792969 L 85.765625 32.099609 C 85.765625 32.483809 85.871264 32.867488 86.058594 33.242188 L 86.070312 33.265625 L 86.083984 33.287109 C 86.300653 33.627609 86.561581 33.910234 86.869141 34.115234 L 86.873047 34.115234 L 90.988281 36.710938 C 91.302952 36.920738 91.721144 37.045728 92.089844 36.861328 L 92.117188 36.847656 L 92.142578 36.832031 C 92.478054 36.608331 92.605066 36.202059 92.605469 35.818359 L 92.646484 15.619141 C 92.646484 15.404741 92.694714 15.187378 92.798828 14.955078 C 92.92704 14.701678 93.062431 14.539553 93.189453 14.439453 C 93.30665 14.370453 93.463599 14.318359 93.705078 14.318359 C 93.941745 14.318359 94.112917 14.371309 94.267578 14.474609 L 97.066406 16.392578 L 97.068359 16.392578 C 97.223021 16.495678 97.367861 16.659522 97.498047 16.919922 L 97.501953 16.929688 L 97.505859 16.939453 C 97.632309 17.171253 97.685547 17.377678 97.685547 17.580078 L 97.726562 39.060547 C 97.72672 39.251947 97.749082 39.435334 97.826172 39.615234 C 97.903522 39.795734 98.052868 39.971706 98.242188 40.066406 C 98.610887 40.250706 99.029079 40.123462 99.34375 39.914062 L 103.46875 37.136719 C 103.81596 36.943819 104.08114 36.626788 104.27344 36.242188 C 104.46077 35.867487 104.56641 35.483809 104.56641 35.099609 L 104.56641 15.859375 C 104.56641 15.477175 104.45724 15.099294 104.26562 14.746094 C 104.07645 14.371694 103.82584 14.05845 103.50391 13.84375 L 103.50195 13.84375 L 97.943359 10.205078 C 97.610909 9.9834781 97.208746 9.8808594 96.785156 9.8808594 C 96.381823 9.8808594 95.993307 9.9881781 95.667969 10.205078 L 92.708984 12.164062 C 92.618624 12.224062 92.660167 12.208891 92.654297 12.212891 C 92.650397 12.185891 92.646484 12.184625 92.646484 12.140625 L 92.605469 0.90039062 C 92.605469 0.70829063 92.583209 0.52425 92.505859 0.34375 C 92.428509 0.16325 92.279163 -0.01086875 92.089844 -0.10546875 C 91.997829 -0.15149375 91.902413 -0.1785625 91.806641 -0.18945312 z M 4.6152344 -0.13476562 C 4.4224103 -0.16076562 4.2072753 -0.10770625 4.0351562 -0.00390625 C 3.8596593 0.09309375 3.7139718 0.25262813 3.640625 0.42382812 C 3.563271 0.60422812 3.5390625 0.78836875 3.5390625 0.98046875 L 3.5 35.861328 C 3.5 36.053428 3.5222554 36.237469 3.5996094 36.417969 C 3.6769634 36.598469 3.8263061 36.772587 4.015625 36.867188 L 4.0292969 36.876953 L 4.0429688 36.886719 C 4.4033305 37.041119 4.8374001 36.932731 5.1386719 36.707031 L 5.140625 36.707031 L 9.5292969 33.753906 L 9.5390625 33.744141 C 9.8203062 33.533141 10.048445 33.247703 10.234375 32.908203 C 10.451889 32.533003 10.580078 32.140841 10.580078 31.744141 L 10.580078 21.785156 C 10.580078 21.587256 10.637358 21.361416 10.763672 21.103516 C 10.922879 20.835116 11.082809 20.648422 11.220703 20.544922 L 12.367188 19.794922 L 12.380859 19.785156 C 12.490193 19.703156 12.650178 19.644531 12.919922 19.644531 C 13.189665 19.644531 13.351604 19.703556 13.460938 19.785156 L 13.46875 19.794922 L 16.121094 21.603516 L 16.123047 21.603516 C 16.277708 21.706616 16.422549 21.870559 16.552734 22.130859 L 16.564453 22.152344 L 16.578125 22.175781 C 16.724263 22.405481 16.779297 22.599809 16.779297 22.787109 L 16.779297 35.066406 C 16.779297 35.450606 16.884936 35.836237 17.072266 36.210938 C 17.26208 36.590537 17.516458 36.906147 17.841797 37.123047 L 22.201172 40.082031 L 22.203125 40.082031 C 22.365794 40.190431 22.540256 40.275534 22.744141 40.302734 C 22.933129 40.327734 23.141991 40.271775 23.3125 40.171875 C 23.493088 40.080875 23.661433 39.928041 23.740234 39.744141 C 23.825514 39.545141 23.836639 39.341725 23.818359 39.140625 L 23.820312 39.185547 L 23.779297 21.107422 C 23.779297 20.715422 23.647219 20.332169 23.427734 19.980469 C 23.245515 19.623969 23.025732 19.321522 22.740234 19.107422 L 22.730469 19.097656 L 18.302734 16.078125 L 18.283203 16.068359 C 18.142164 15.990359 18.179688 16.010375 18.179688 15.984375 C 18.179688 15.911375 18.172388 15.894428 18.316406 15.798828 L 18.318359 15.798828 L 20.638672 14.240234 L 20.603516 14.259766 C 20.950724 14.066866 21.213951 13.751788 21.40625 13.367188 C 21.59358 12.992488 21.699219 12.606956 21.699219 12.222656 L 21.699219 7.0234375 C 21.699219 6.6433375 21.592027 6.2656625 21.402344 5.9140625 C 21.213324 5.5382625 20.961033 5.2234125 20.638672 5.0078125 L 13.757812 0.3671875 C 13.425363 0.1454875 13.023199 0.04296875 12.599609 0.04296875 C 12.196276 0.04296875 11.80776 0.1502875 11.482422 0.3671875 L 11.480469 0.3671875 L 9.1191406 1.96875 C 8.9720849 2.06575 8.7874269 2.1230469 8.5195312 2.1230469 C 8.2836276 2.1230469 8.1132549 2.0689969 7.9589844 1.9667969 L 7.9570312 1.9667969 L 5.1582031 0.087890625 C 4.9955339 -0.020509375 4.8191185 -0.10375937 4.6152344 -0.13085938 L 4.6152344 -0.13476562 z M 139.76172 0.76171875 C 140.03146 0.76171875 140.21768 0.81771563 140.36523 0.91601562 L 144.26367 3.4863281 L 144.2793 3.4960938 C 144.40797 3.5670938 144.38281 3.5461406 144.38281 3.6191406 C 144.38281 3.6451406 144.39721 3.6611188 144.24609 3.7617188 L 141.53711 5.5546875 C 141.427 5.6236875 141.24545 5.6796875 140.96289 5.6796875 C 140.68033 5.6796875 140.47683 5.6247156 140.32617 5.5410156 L 137.80078 3.84375 C 137.46833 3.62215 137.06617 3.5195312 136.64258 3.5195312 C 136.25313 3.5195312 135.88674 3.6015219 135.57812 3.7949219 C 135.25999 3.9937219 135.02327 4.3010813 134.83594 4.6757812 L 134.83203 4.6855469 L 134.82812 4.6953125 C 134.66881 5.0458125 134.58203 5.4141031 134.58203 5.7832031 L 134.58203 15.662109 C 134.58203 16.061509 134.7305 16.457028 135.00977 16.736328 L 135.02148 16.748047 L 135.0332 16.759766 C 135.33201 17.021266 135.72365 17.162109 136.12305 17.162109 L 141.64258 17.162109 L 139.80664 18.365234 L 139.80469 18.365234 C 139.62158 18.487234 139.36244 18.602919 139.02539 18.699219 L 139.01953 18.699219 L 139.01562 18.699219 C 138.70685 18.794219 138.43586 18.835938 138.20312 18.835938 L 136.12305 18.835938 C 135.7085 18.835938 135.30412 19.008334 135.00977 19.302734 C 134.73094 19.581534 134.58249 19.9763 134.58203 20.375 L 134.50195 45.695312 C 134.50195 45.751313 134.49493 45.757156 134.49023 45.785156 C 134.47023 45.775156 134.47255 45.784766 134.43945 45.759766 L 134.4375 45.759766 L 130.33789 43.09375 C 130.19834 42.98815 130.03965 42.803497 129.87891 42.529297 C 129.75575 42.300897 129.70312 42.096484 129.70312 41.896484 L 129.70312 20.376953 C 129.70312 19.974753 129.51868 19.586253 129.22461 19.314453 C 128.95275 19.020353 128.56427 18.835938 128.16211 18.835938 L 125.02539 18.835938 L 126.79883 17.673828 L 126.80078 17.673828 C 126.991 17.546928 127.23833 17.429584 127.54883 17.333984 L 127.56641 17.333984 L 127.58203 17.324219 C 127.89261 17.204719 128.1358 17.15625 128.2832 17.15625 C 128.65904 17.15625 129.03353 16.993191 129.2832 16.712891 C 129.5535 16.434591 129.70314 16.04895 129.70312 15.65625 L 129.70312 7.8964844 C 129.70312 7.6970844 129.75652 7.493225 129.87891 7.265625 C 130.04026 6.990325 130.19992 6.8046188 130.33984 6.6992188 C 130.33984 6.6992188 130.3418 6.6992188 130.3418 6.6992188 L 139.19727 0.91601562 L 139.19922 0.91601562 C 139.35388 0.81291562 139.52505 0.76171875 139.76172 0.76171875 z M 78.376953 0.80078125 C 78.646697 0.80078125 78.830966 0.85873125 78.978516 0.95703125 L 83.158203 3.9023438 C 83.271614 3.9873438 83.275391 4.0107625 83.275391 4.1015625 C 83.275391 4.1485625 83.284291 4.1656187 83.15625 4.2617188 L 80.359375 6.21875 L 80.349609 6.2285156 C 80.2017 6.3435156 80.032314 6.4023438 79.775391 6.4023438 C 79.552613 6.4023438 79.399133 6.3493156 79.244141 6.2285156 L 79.232422 6.21875 L 76.337891 4.2070312 L 76.333984 4.2070312 C 76.001534 3.9854313 75.599371 3.8828125 75.175781 3.8828125 C 74.772448 3.8828125 74.385505 3.9906563 74.076172 4.2226562 L 73.21875 4.8066406 C 73.21875 4.8066406 73.216797 4.8066406 73.216797 4.8066406 L 73.214844 4.8066406 C 72.891654 5.0234406 72.638157 5.3369438 72.449219 5.7148438 C 72.261889 6.0895437 72.15625 6.475075 72.15625 6.859375 L 72.15625 27.298828 C 72.15625 27.683128 72.261889 28.068759 72.449219 28.443359 L 72.453125 28.453125 L 72.457031 28.462891 C 72.646006 28.809291 72.89177 29.106291 73.189453 29.337891 L 73.199219 29.347656 L 77.755859 32.503906 C 78.065193 32.735906 78.452135 32.84375 78.855469 32.84375 C 79.279058 32.84375 79.681222 32.743084 80.013672 32.521484 L 80.019531 32.521484 L 82.335938 30.884766 C 82.507893 30.770466 82.687221 30.7071 82.902344 30.6875 C 83.111325 30.6685 83.212119 30.703859 83.285156 30.755859 C 83.288819 30.758479 83.286068 30.754165 83.289062 30.755859 L 83.285156 30.767578 L 83.28125 30.794922 C 83.281453 30.794922 83.27205 30.85385 83.099609 30.96875 L 83.09375 30.96875 L 76.242188 35.775391 L 76.236328 35.785156 C 76.126995 35.867156 75.965056 35.923828 75.695312 35.923828 C 75.472536 35.923828 75.319055 35.8708 75.164062 35.75 L 75.154297 35.740234 L 67.779297 30.488281 L 67.773438 30.488281 C 67.618775 30.385181 67.473936 30.221237 67.34375 29.960938 C 67.21108 29.695538 67.15625 29.468125 67.15625 29.265625 L 67.15625 9.2246094 C 67.15625 9.0222094 67.20949 8.8157844 67.335938 8.5839844 L 67.339844 8.5742188 L 67.34375 8.5644531 C 67.475447 8.3010531 67.627171 8.1131156 67.798828 7.9785156 L 77.814453 0.95703125 C 77.969115 0.85393125 78.140286 0.80078125 78.376953 0.80078125 z M 91.597656 0.828125 C 91.601656 0.855125 91.605469 0.8534375 91.605469 0.8984375 L 91.646484 12.138672 C 91.646641 12.330072 91.669004 12.513459 91.746094 12.693359 C 91.823444 12.873859 91.97279 13.049831 92.162109 13.144531 C 92.530809 13.328831 92.949001 13.201587 93.263672 12.992188 L 96.222656 11.033203 C 96.377318 10.930103 96.54849 10.876953 96.785156 10.876953 C 97.0549 10.876953 97.241122 10.935003 97.388672 11.033203 L 97.390625 11.033203 L 102.95117 14.675781 C 103.10513 14.778981 103.24925 14.941872 103.37891 15.201172 L 103.38281 15.212891 L 103.38672 15.222656 C 103.51317 15.454556 103.56641 15.660781 103.56641 15.863281 L 103.56641 35.103516 C 103.56641 35.305916 103.51161 35.533528 103.37891 35.798828 C 103.25121 36.054228 103.11521 36.191825 102.98242 36.265625 L 102.96484 36.275391 L 98.787109 39.087891 C 98.704079 39.142891 98.740015 39.130766 98.734375 39.134766 C 98.730475 39.108766 98.726562 39.1065 98.726562 39.0625 L 98.685547 17.582031 C 98.685547 17.201131 98.577144 16.824956 98.386719 16.472656 C 98.197326 16.096556 97.946134 15.781806 97.623047 15.566406 L 94.826172 13.648438 L 94.822266 13.648438 C 94.496927 13.431537 94.108411 13.324219 93.705078 13.324219 C 93.315634 13.324219 92.949239 13.409163 92.640625 13.601562 L 92.623047 13.611328 L 92.605469 13.625 C 92.312135 13.845 92.083282 14.151784 91.898438 14.521484 L 91.894531 14.53125 L 91.890625 14.542969 C 91.731311 14.893469 91.646484 15.261759 91.646484 15.630859 L 91.605469 35.830078 C 91.605469 35.950678 91.601903 35.924053 91.595703 35.939453 C 91.587403 35.939453 91.629169 35.952531 91.542969 35.894531 L 91.537109 35.894531 L 87.423828 33.298828 C 87.258285 33.188228 87.098389 33.018109 86.947266 32.787109 C 86.824809 32.533909 86.765625 32.312288 86.765625 32.117188 L 86.765625 4.796875 C 86.765625 4.594475 86.820455 4.3650094 86.953125 4.0996094 C 87.080826 3.8442094 87.214864 3.7066125 87.347656 3.6328125 L 87.363281 3.6210938 L 91.541016 0.890625 L 91.542969 0.890625 C 91.633329 0.830625 91.591786 0.84579688 91.597656 0.84179688 L 91.597656 0.828125 z M 4.5507812 0.88867188 C 4.5703952 0.89867187 4.5685605 0.8970625 4.6015625 0.9140625 L 7.4023438 2.7949219 C 7.7276821 3.0118219 8.116198 3.1191406 8.5195312 3.1191406 C 8.9431211 3.1191406 9.3452843 3.0165219 9.6777344 2.7949219 L 9.6796875 2.7949219 L 12.041016 1.1953125 C 12.194787 1.0937125 12.36468 1.0410156 12.599609 1.0410156 C 12.869353 1.0410156 13.055575 1.0989656 13.203125 1.1972656 L 20.082031 5.8359375 C 20.236693 5.9390375 20.383486 6.1048344 20.513672 6.3652344 L 20.517578 6.3769531 L 20.521484 6.3867188 C 20.647934 6.6185188 20.699219 6.8249438 20.699219 7.0273438 L 20.699219 12.226562 C 20.699219 12.429062 20.646339 12.658528 20.513672 12.923828 C 20.385971 13.179228 20.24998 13.314972 20.117188 13.388672 L 20.097656 13.400391 L 17.761719 14.972656 C 17.426458 15.196856 17.179688 15.580228 17.179688 15.986328 C 17.179688 16.387128 17.457914 16.755059 17.796875 16.943359 L 17.757812 16.919922 L 22.142578 19.910156 C 22.27521 20.010456 22.418429 20.182572 22.552734 20.451172 L 22.564453 20.472656 L 22.578125 20.494141 C 22.724263 20.723841 22.779297 20.920122 22.779297 21.107422 L 22.820312 39.208984 L 22.822266 39.232422 C 22.825866 39.272422 22.823966 39.263203 22.822266 39.283203 C 22.801906 39.273203 22.799762 39.273 22.757812 39.25 L 18.398438 36.291016 L 18.396484 36.291016 C 18.241823 36.187916 18.096983 36.024072 17.966797 35.763672 C 17.834127 35.498372 17.779297 35.268806 17.779297 35.066406 L 17.779297 22.787109 C 17.779297 22.395909 17.648332 22.013209 17.429688 21.662109 C 17.241336 21.294209 16.995506 20.983284 16.677734 20.771484 L 14.060547 18.986328 C 13.743214 18.748328 13.343512 18.646484 12.919922 18.646484 C 12.496332 18.646484 12.09663 18.748328 11.779297 18.986328 L 10.632812 19.736328 L 10.619141 19.746094 C 10.333807 19.960094 10.098835 20.254934 9.8886719 20.615234 L 9.8808594 20.628906 L 9.8730469 20.642578 C 9.6857172 21.017278 9.5800781 21.404763 9.5800781 21.789062 L 9.5800781 31.748047 C 9.5800781 31.935247 9.5203501 32.151563 9.3671875 32.414062 L 9.3652344 32.425781 L 9.3613281 32.435547 C 9.2283099 32.679447 9.0848107 32.845025 8.9414062 32.953125 C 8.9414062 32.953125 8.9394531 32.953125 8.9394531 32.953125 L 4.5507812 35.904297 L 4.5390625 35.914062 C 4.5000095 35.943062 4.5220635 35.924594 4.5078125 35.933594 C 4.5048525 35.909594 4.5 35.911 4.5 35.875 L 4.5390625 0.99414062 C 4.5390625 0.93714062 4.5455923 0.93034375 4.5507812 0.90234375 L 4.5507812 0.88867188 z M 10.404297 4.1855469 C 10.30822 4.1935453 10.213137 4.2152813 10.123047 4.2539062 L 10.123047 4.2402344 L 10.109375 4.25 L 10.095703 4.2597656 C 9.9063843 4.3547656 9.7570419 4.5284844 9.6796875 4.7089844 C 9.6023335 4.8893844 9.5800781 5.0754781 9.5800781 5.2675781 L 9.5800781 17.947266 C 9.5800781 18.139466 9.6023335 18.323406 9.6796875 18.503906 C 9.7570415 18.684406 9.9063843 18.858425 10.095703 18.953125 L 10.109375 18.962891 L 10.123047 18.972656 C 10.483409 19.127056 10.917478 19.017669 11.21875 18.792969 L 11.220703 18.792969 L 14.636719 16.488281 L 14.638672 16.488281 C 14.950785 16.279681 15.203292 15.987672 15.394531 15.638672 C 15.612046 15.263472 15.740234 14.871309 15.740234 14.474609 L 15.740234 8.7539062 C 15.740234 8.3627062 15.60732 7.9800062 15.388672 7.6289062 C 15.200766 7.2618062 14.955376 6.9520344 14.638672 6.7402344 L 11.220703 4.4335938 C 11.220703 4.4335938 11.21875 4.4335938 11.21875 4.4335938 C 10.992796 4.2646938 10.692529 4.1615516 10.404297 4.1855469 z M 10.587891 5.2011719 C 10.602141 5.2111719 10.580091 5.18975 10.619141 5.21875 L 10.630859 5.2285156 L 14.082031 7.5566406 C 14.236693 7.6597406 14.383486 7.8235844 14.513672 8.0839844 L 14.523438 8.109375 L 14.539062 8.1308594 C 14.685201 8.3605594 14.740234 8.5548875 14.740234 8.7421875 L 14.740234 14.462891 C 14.740234 14.650091 14.680504 14.868359 14.527344 15.130859 L 14.525391 15.140625 L 14.521484 15.150391 C 14.39351 15.384991 14.24736 15.543997 14.082031 15.654297 L 10.630859 17.982422 L 10.619141 17.992188 C 10.580091 18.021187 10.602141 18.002719 10.587891 18.011719 C 10.584891 17.987719 10.580078 17.988172 10.580078 17.951172 L 10.580078 5.2714844 C 10.580078 5.2344844 10.584891 5.2359375 10.587891 5.2109375 L 10.587891 5.2011719 z M 57.421875 9.8398438 C 57.018542 9.8398438 56.630025 9.9471625 56.304688 10.164062 L 46.986328 16.283203 L 46.984375 16.283203 C 46.661287 16.498603 46.410096 16.813353 46.220703 17.189453 C 46.030278 17.541753 45.921875 17.917928 45.921875 18.298828 L 45.921875 29.498047 C 45.921875 29.882347 46.027514 30.267878 46.214844 30.642578 L 46.21875 30.652344 L 46.222656 30.662109 C 46.414681 31.014109 46.669704 31.309731 46.984375 31.519531 L 46.986328 31.519531 L 50.070312 33.521484 C 50.394593 33.735984 50.780448 33.841797 51.181641 33.841797 C 51.604567 33.841797 52.005746 33.740431 52.337891 33.519531 L 57.658203 30 L 57.660156 30 C 57.730246 29.953282 57.753911 29.943312 57.769531 29.935547 C 57.765919 29.944715 57.761719 29.942745 57.761719 29.992188 L 57.761719 30.992188 C 57.742489 31.098387 57.722656 31.2049 57.722656 31.3125 L 57.722656 32.033203 L 57.722656 33.113281 C 57.722656 33.312881 57.665826 33.538228 57.537109 33.798828 C 57.407031 34.035128 57.254485 34.217222 57.074219 34.357422 L 49.408203 39.789062 L 49.402344 39.789062 C 49.11701 40.003062 48.880085 40.29595 48.669922 40.65625 L 48.662109 40.669922 L 48.654297 40.6875 C 48.466967 41.0621 48.361328 41.445878 48.361328 41.830078 L 48.361328 45.150391 C 48.361328 45.534591 48.466967 45.920222 48.654297 46.294922 L 48.662109 46.308594 L 48.669922 46.322266 C 48.880085 46.682566 49.11701 46.977406 49.402344 47.191406 L 49.40625 47.191406 L 53.201172 49.908203 C 53.510505 50.140203 53.899401 50.248047 54.302734 50.248047 C 54.726324 50.248047 55.126534 50.145528 55.458984 49.923828 L 55.466797 49.923828 L 63.613281 44.023438 L 63.630859 44.007812 C 63.901784 43.770812 64.121259 43.464216 64.302734 43.103516 C 64.493751 42.750816 64.601563 42.373787 64.601562 41.992188 L 64.601562 38.992188 L 64.601562 38.232422 C 64.601562 38.167422 64.611597 38.128128 64.617188 38.111328 L 64.642578 38.033203 L 64.642578 36.912109 L 64.642578 15.431641 C 64.642578 15.040541 64.509664 14.657741 64.291016 14.306641 C 64.102665 13.938841 63.856835 13.627916 63.539062 13.416016 L 63.537109 13.416016 L 58.580078 10.175781 C 58.247628 9.9541813 57.845465 9.8515625 57.421875 9.8515625 L 57.421875 9.8398438 z M 117.40039 9.8867188 C 117.08286 9.8607188 116.77588 9.9176906 116.48828 10.025391 C 116.37318 10.043391 116.28299 10.069516 116.21484 10.103516 C 116.12434 10.148516 116.02867 10.205644 115.91406 10.277344 L 115.91016 10.277344 L 111.34375 13.240234 L 110.68555 13.679688 L 110.62891 13.679688 L 107.18359 15.921875 L 107.18164 15.921875 C 106.86341 16.133975 106.6021 16.437441 106.38672 16.806641 L 106.38281 16.816406 L 106.37891 16.826172 C 106.18536 17.180972 106.07814 17.561113 106.07812 17.945312 L 106.07812 30.984375 C 106.07812 31.368575 106.18376 31.754306 106.37109 32.128906 L 106.38281 32.150391 L 106.39648 32.173828 C 106.61684 32.520128 106.88688 32.800222 107.21484 32.982422 L 112.74023 36.601562 C 112.74023 36.601562 112.74219 36.601562 112.74219 36.601562 L 112.74414 36.601562 C 113.07589 36.821563 113.47636 36.921875 113.89844 36.921875 C 114.32203 36.921875 114.72173 36.820031 115.03906 36.582031 L 115.00977 36.603516 L 122.45312 31.800781 L 122.45508 31.800781 C 122.75449 31.601181 122.99416 31.319184 123.05664 30.958984 C 123.09724 30.786984 123.10434 30.586203 123.02344 30.408203 C 122.94104 30.227003 122.79601 30.103172 122.64844 30.013672 C 122.35088 29.808272 121.98403 29.733878 121.61328 29.767578 C 121.24302 29.801578 120.88923 29.924506 120.58203 30.128906 L 117.70508 31.966797 L 117.70117 31.966797 C 117.55362 32.064797 117.3674 32.123047 117.09766 32.123047 C 116.86099 32.123047 116.68982 32.069997 116.53516 31.966797 L 116.53125 31.966797 L 113.60547 30.082031 L 113.60352 30.082031 C 113.46958 29.998031 113.33551 29.862538 113.20703 29.648438 C 113.07721 29.432037 113.00125 29.22815 112.95898 29.03125 L 112.95898 25.466797 C 112.95898 25.266797 113.01158 25.062384 113.13477 24.833984 C 113.29165 24.566584 113.45467 24.390203 113.61523 24.283203 L 122.45312 18.564453 L 122.45508 18.564453 C 122.76975 18.354653 123.02477 18.060984 123.2168 17.708984 L 123.2207 17.699219 L 123.22461 17.689453 C 123.41194 17.314853 123.51758 16.931175 123.51758 16.546875 L 123.51758 16.267578 L 123.51758 15.986328 L 123.51758 14.746094 L 123.51562 14.791016 C 123.55253 14.385416 123.42982 13.980341 123.20508 13.619141 C 123.01688 13.252441 122.7721 12.941869 122.45508 12.730469 L 122.45117 12.730469 L 118.44531 10.166016 L 118.44336 10.166016 C 118.141 9.9770156 117.78104 9.8998844 117.40039 9.8964844 L 117.40039 9.8867188 z M 26.460938 9.9277344 C 26.258773 9.9041219 26.052281 9.9320969 25.876953 10.029297 L 25.876953 10.027344 C 25.696086 10.123344 25.549523 10.288091 25.474609 10.462891 C 25.397259 10.643391 25.375 10.829384 25.375 11.021484 L 25.414062 45.181641 C 25.414062 45.565841 25.523247 45.945981 25.716797 46.300781 L 25.71875 46.310547 L 25.722656 46.320312 C 25.937778 46.689112 26.19988 46.991025 26.517578 47.203125 L 30.654297 49.974609 L 30.671875 49.986328 C 30.986697 50.161228 31.380511 50.240919 31.726562 50.074219 C 31.914196 49.988219 32.081214 49.833644 32.171875 49.652344 C 32.265395 49.465244 32.294922 49.268059 32.294922 49.068359 L 32.294922 34.748047 C 32.294922 34.706047 32.299234 34.706641 32.302734 34.681641 C 32.320894 34.681641 32.307537 34.663609 32.398438 34.724609 L 32.402344 34.724609 L 32.408203 34.724609 L 35.4375 36.638672 C 35.76995 36.860372 36.172113 36.962891 36.595703 36.962891 C 37.019293 36.962891 37.419503 36.860372 37.751953 36.638672 L 43.351562 32.919922 C 43.666235 32.710222 43.921256 32.416453 44.113281 32.064453 L 44.119141 32.054688 L 44.123047 32.044922 C 44.310377 31.670322 44.414063 31.284691 44.414062 30.900391 L 44.414062 16.701172 C 44.414062 16.316972 44.310377 15.931241 44.123047 15.556641 C 43.933233 15.176941 43.676901 14.861431 43.351562 14.644531 L 37.535156 10.820312 C 37.212656 10.578512 36.800074 10.498644 36.376953 10.527344 C 35.98051 10.527344 35.597504 10.632303 35.277344 10.845703 L 35.265625 10.855469 L 32.320312 13.074219 L 32.306641 13.085938 C 32.194317 13.183937 32.051845 13.242188 31.794922 13.242188 C 31.559018 13.242188 31.388646 13.188238 31.234375 13.085938 L 31.232422 13.085938 L 27.015625 10.142578 C 26.860938 10.026528 26.663102 9.9513469 26.460938 9.9277344 z M 57.421875 10.835938 L 57.421875 10.839844 C 57.691619 10.839844 57.877841 10.897894 58.025391 10.996094 L 58.027344 10.996094 L 62.988281 14.238281 C 63.141543 14.341481 63.28493 14.503419 63.414062 14.761719 L 63.425781 14.783203 L 63.439453 14.804688 C 63.585591 15.034387 63.642578 15.228816 63.642578 15.416016 L 63.642578 36.896484 L 63.642578 37.9375 L 63.667969 37.779297 C 63.620219 37.922597 63.601562 38.068497 63.601562 38.216797 L 63.601562 38.976562 L 63.601562 41.976562 C 63.601562 42.178962 63.550282 42.385387 63.423828 42.617188 L 63.417969 42.626953 L 63.414062 42.636719 C 63.278213 42.908419 63.129851 43.102128 62.978516 43.236328 L 54.904297 49.083984 C 54.756747 49.181984 54.572478 49.240234 54.302734 49.240234 C 54.066068 49.240234 53.920068 49.189263 53.802734 49.101562 L 53.796875 49.101562 L 50.001953 46.384766 C 49.864059 46.281366 49.704129 46.094672 49.544922 45.826172 C 49.418606 45.568372 49.361328 45.342431 49.361328 45.144531 L 49.361328 41.824219 C 49.361328 41.625319 49.417148 41.400225 49.544922 41.140625 C 49.703795 40.873125 49.864348 40.687184 50.001953 40.583984 L 57.679688 35.146484 L 57.689453 35.136719 C 57.987137 34.905219 58.230947 34.608119 58.419922 34.261719 L 58.425781 34.251953 L 58.429688 34.242188 C 58.617016 33.867487 58.722656 33.483809 58.722656 33.099609 L 58.722656 32.019531 L 58.722656 31.298828 C 58.722656 31.233828 58.728954 31.168209 58.746094 31.099609 L 58.761719 31.041016 L 58.761719 29.978516 C 58.761719 29.600516 58.549539 29.178172 58.1875 29.013672 C 57.823179 28.841872 57.415127 28.955709 57.105469 29.162109 L 51.785156 32.681641 C 51.637606 32.779641 51.451384 32.835938 51.181641 32.835938 C 50.944974 32.835938 50.773802 32.784941 50.619141 32.681641 L 50.617188 32.681641 L 47.539062 30.683594 C 47.375782 30.574694 47.234231 30.415447 47.107422 30.185547 C 46.978694 29.924847 46.921875 29.697747 46.921875 29.498047 L 46.921875 18.298828 C 46.921875 18.096428 46.975115 17.890003 47.101562 17.658203 L 47.105469 17.648438 L 47.109375 17.638672 C 47.239561 17.378272 47.384402 17.214428 47.539062 17.111328 L 56.857422 10.992188 L 56.859375 10.992188 C 57.014037 10.889087 57.185208 10.835938 57.421875 10.835938 z M 117.33203 10.878906 L 117.35547 10.878906 L 117.37891 10.878906 C 117.62666 10.878906 117.7904 10.9279 117.9082 11 L 117.91016 11 L 121.90234 13.556641 C 122.0563 13.659841 122.20042 13.822731 122.33008 14.082031 L 122.3418 14.105469 L 122.35547 14.126953 C 122.49582 14.347553 122.53531 14.519759 122.51953 14.693359 L 122.51758 14.716797 L 122.51758 15.978516 L 122.51758 16.259766 L 122.51758 16.539062 C 122.51758 16.739762 122.46228 16.966116 122.33203 17.228516 C 122.20582 17.456016 122.06263 17.614556 121.90039 17.722656 L 113.06445 23.441406 L 113.06055 23.441406 C 112.74232 23.653606 112.48101 23.954919 112.26562 24.324219 L 112.26172 24.333984 L 112.25977 24.34375 C 112.06622 24.69865 111.95898 25.078591 111.95898 25.462891 L 111.95898 29.152344 L 111.96875 29.201172 C 112.03465 29.530772 112.16439 29.851456 112.34961 30.160156 C 112.54113 30.479356 112.77953 30.742781 113.07227 30.925781 L 115.98047 32.798828 C 115.98147 32.799528 115.98337 32.798128 115.98438 32.798828 C 116.30907 33.014328 116.69562 33.123047 117.09766 33.123047 C 117.52125 33.123047 117.92341 33.020428 118.25586 32.798828 L 121.13086 30.960938 L 121.13477 30.960938 C 121.30721 30.845937 121.48735 30.781419 121.70312 30.761719 C 121.89307 30.744719 121.98095 30.783125 122.05273 30.828125 C 122.04573 30.845125 122.04273 30.876103 121.90039 30.970703 L 114.45312 35.775391 L 114.4375 35.787109 C 114.32817 35.869109 114.16818 35.925781 113.89844 35.925781 C 113.62869 35.925781 113.44247 35.869684 113.29492 35.771484 L 113.29297 35.771484 L 107.7168 32.121094 L 107.70117 32.111328 C 107.5552 32.030328 107.40492 31.883856 107.25781 31.660156 C 107.13552 31.407156 107.07814 31.183281 107.07812 30.988281 L 107.07812 17.949219 C 107.07812 17.748119 107.13112 17.5425 107.25586 17.3125 C 107.41193 17.0477 107.57669 16.870072 107.73633 16.763672 L 110.92578 14.689453 L 111.02539 14.689453 L 111.10156 14.613281 L 111.89258 14.085938 L 116.44336 11.132812 L 116.45117 11.132812 C 116.54337 11.075812 116.61649 11.032819 116.6582 11.011719 L 116.68359 11.011719 L 116.78125 10.96875 C 116.93803 10.89875 117.1108 10.870625 117.33203 10.890625 L 117.33203 10.878906 z M 26.386719 10.916016 C 26.380519 10.916516 26.352152 10.893453 26.414062 10.939453 L 26.421875 10.939453 L 30.673828 13.908203 L 30.677734 13.908203 C 31.003073 14.125103 31.391589 14.232422 31.794922 14.232422 C 32.230681 14.232422 32.648707 14.104278 32.962891 13.830078 L 32.964844 13.830078 L 35.832031 11.669922 C 35.986693 11.566822 36.157865 11.513672 36.394531 11.513672 L 36.414062 11.513672 L 36.433594 11.513672 C 36.696195 11.493672 36.83688 11.541734 36.935547 11.615234 L 36.947266 11.626953 L 42.796875 15.472656 C 42.951537 15.575756 43.09833 15.737747 43.228516 15.998047 C 43.361186 16.263447 43.414063 16.494866 43.414062 16.697266 L 43.414062 30.894531 C 43.414062 31.094231 43.359192 31.321331 43.230469 31.582031 C 43.10366 31.811931 42.960155 31.969325 42.796875 32.078125 L 37.197266 35.798828 C 37.049716 35.896828 36.865447 35.957031 36.595703 35.957031 C 36.32596 35.957031 36.139736 35.897128 35.992188 35.798828 L 35.986328 35.798828 L 32.953125 33.884766 C 32.952025 33.884066 32.950319 33.885466 32.949219 33.884766 C 32.627845 33.671666 32.205537 33.56125 31.837891 33.71875 L 31.824219 33.730469 L 31.810547 33.740234 C 31.621228 33.835234 31.471886 34.008953 31.394531 34.189453 C 31.317181 34.369953 31.294922 34.553894 31.294922 34.746094 L 31.294922 49.066406 C 31.294922 49.139406 31.28572 49.159428 31.28125 49.173828 C 31.30032 49.163828 31.27565 49.164188 31.173828 49.117188 L 27.072266 46.371094 C 26.912302 46.264394 26.74815 46.086012 26.591797 45.820312 C 26.468642 45.591913 26.414062 45.3874 26.414062 45.1875 L 26.375 11.027344 C 26.375248 10.964344 26.381099 10.949428 26.386719 10.923828 L 26.386719 10.916016 z M 55.925781 12.685547 C 55.542506 12.685547 55.177177 12.766559 54.859375 12.943359 L 54.847656 12.953125 L 52.910156 14.164062 L 52.904297 14.164062 C 52.58607 14.376162 52.32476 14.679528 52.109375 15.048828 L 52.105469 15.058594 L 52.103516 15.068359 C 51.909965 15.423159 51.802734 15.805153 51.802734 16.189453 L 51.802734 27.587891 C 51.802734 27.972091 51.90642 28.357822 52.09375 28.732422 L 52.099609 28.742188 L 52.103516 28.751953 C 52.295541 29.103953 52.550563 29.399575 52.865234 29.609375 L 52.871094 29.609375 L 53.207031 29.820312 L 53.21875 29.830078 C 53.541218 30.009178 53.91329 30.091797 54.302734 30.091797 C 54.726324 30.091797 55.126534 29.989178 55.458984 29.767578 L 55.460938 29.767578 L 57.660156 28.287109 C 57.973115 28.078209 58.226435 27.785347 58.417969 27.435547 C 58.634684 27.061047 58.761719 26.669437 58.761719 26.273438 L 58.681641 15.195312 C 58.681641 14.804713 58.550036 14.422966 58.332031 14.072266 C 58.140826 13.699066 57.884547 13.385966 57.544922 13.197266 L 57.109375 12.917969 L 57.085938 12.908203 C 56.736305 12.733303 56.337607 12.671019 55.925781 12.699219 L 55.925781 12.685547 z M 114.21875 13.480469 C 113.82035 13.480469 113.43812 13.589181 113.11523 13.800781 C 113.04553 13.837781 112.97649 13.874766 112.9043 13.947266 L 113.03516 13.851562 L 112.93359 13.904297 L 112.91406 13.916016 C 112.60343 14.110216 112.37188 14.410925 112.20898 14.765625 C 112.04524 15.095825 111.95898 15.454012 111.95898 15.820312 L 111.95898 21.660156 C 111.95898 22.044356 112.08391 22.453734 112.41992 22.677734 L 112.45898 22.703125 L 112.50195 22.720703 C 112.87023 22.878603 113.2917 22.770641 113.61328 22.556641 L 113.61523 22.556641 L 116.60352 20.605469 L 116.60547 20.605469 C 116.89118 20.426369 117.12437 20.171241 117.29297 19.869141 C 117.47448 19.564041 117.6029 19.245322 117.66797 18.919922 L 117.67773 18.873047 L 117.67773 16.582031 C 117.67773 16.190831 117.54677 15.808131 117.32812 15.457031 C 117.13978 15.089131 116.89394 14.778206 116.57617 14.566406 L 116.57031 14.566406 L 115.375 13.810547 C 115.04255 13.588947 114.64234 13.486328 114.21875 13.486328 L 114.21875 13.480469 z M 110.89844 13.640625 C 110.85584 13.640625 110.84123 13.672641 110.80273 13.681641 L 110.76367 13.681641 L 110.89844 13.640625 z M 55.980469 13.679688 C 56.250533 13.658688 56.455044 13.698656 56.630859 13.785156 L 57.046875 14.050781 L 57.058594 14.060547 C 57.191386 14.134547 57.327377 14.269991 57.455078 14.525391 L 57.466797 14.548828 L 57.480469 14.570312 C 57.626607 14.799913 57.681641 14.996294 57.681641 15.183594 L 57.761719 26.265625 C 57.761407 26.452525 57.703539 26.669741 57.550781 26.931641 L 57.546875 26.941406 L 57.542969 26.951172 C 57.414994 27.185872 57.270798 27.344878 57.105469 27.455078 L 57.103516 27.455078 L 54.904297 28.933594 C 54.756747 29.031594 54.572478 29.089844 54.302734 29.089844 C 54.052179 29.089844 53.86261 29.040825 53.705078 28.953125 L 53.419922 28.775391 L 53.417969 28.775391 C 53.25553 28.666591 53.11261 28.508197 52.986328 28.279297 C 52.857604 28.018597 52.802734 27.791397 52.802734 27.591797 L 52.802734 16.193359 C 52.802734 15.993359 52.855364 15.788947 52.978516 15.560547 C 53.135084 15.293647 53.298727 15.116866 53.458984 15.009766 L 55.345703 13.832031 C 55.502942 13.745031 55.691629 13.695312 55.941406 13.695312 L 55.960938 13.695312 L 55.980469 13.695312 L 55.980469 13.679688 z M 33.337891 14.003906 L 33.337891 14.007812 C 32.913777 14.007812 32.498235 14.169797 32.201172 14.466797 C 31.943644 14.724397 31.726751 15.036784 31.546875 15.396484 L 31.541016 15.412109 L 31.533203 15.427734 C 31.379008 15.797734 31.294922 16.172016 31.294922 16.541016 L 31.294922 27.181641 C 31.294922 27.565841 31.400561 27.949619 31.587891 28.324219 L 31.595703 28.337891 L 31.603516 28.353516 C 31.813679 28.713816 32.050603 29.006703 32.335938 29.220703 L 32.339844 29.220703 L 36.888672 32.492188 C 37.043586 32.612687 37.204271 32.708466 37.396484 32.759766 C 37.588698 32.810766 37.825243 32.801125 38.019531 32.703125 C 38.20885 32.608125 38.358192 32.434406 38.435547 32.253906 C 38.512897 32.073406 38.535156 31.889366 38.535156 31.697266 L 38.535156 18.296875 C 38.535156 17.912675 38.429517 17.526944 38.242188 17.152344 C 38.049889 16.767744 37.784708 16.452666 37.4375 16.259766 L 37.472656 16.28125 L 34.472656 14.28125 C 34.143458 14.06175 33.742173 13.975306 33.337891 14.003906 z M 114.21875 14.472656 L 114.21875 14.480469 C 114.48849 14.480469 114.67276 14.538519 114.82031 14.636719 L 114.82617 14.636719 L 116.02148 15.392578 C 116.17615 15.495678 116.32099 15.659522 116.45117 15.919922 L 116.46289 15.941406 L 116.47656 15.964844 C 116.6227 16.194444 116.67773 16.388872 116.67773 16.576172 L 116.67773 18.742188 C 116.63543 18.939088 116.55951 19.142975 116.42969 19.359375 L 116.42578 19.369141 L 116.42188 19.378906 C 116.32448 19.554306 116.21096 19.669159 116.07227 19.755859 L 116.06836 19.755859 L 113.0625 21.71875 L 113.06055 21.71875 C 112.97275 21.77775 112.98775 21.757719 112.96875 21.761719 C 112.96275 21.745719 112.95898 21.771697 112.95898 21.654297 L 112.95898 15.814453 C 112.95898 15.596953 113.00498 15.400319 113.10547 15.199219 L 113.10938 15.189453 L 113.11328 15.179688 C 113.21632 14.952987 113.3287 14.830766 113.44141 14.759766 C 113.44141 14.759766 113.44336 14.759766 113.44336 14.759766 L 113.55469 14.703125 L 113.61133 14.646484 C 113.57903 14.678484 113.57826 14.672156 113.60156 14.660156 L 113.62891 14.646484 L 113.65625 14.628906 C 113.81091 14.525806 113.98208 14.472656 114.21875 14.472656 z M 33.355469 14.996094 L 33.355469 15 L 33.375 15 L 33.396484 15 C 33.623703 14.981 33.773975 15.020987 33.917969 15.117188 L 36.933594 17.128906 L 36.953125 17.138672 C 37.085917 17.212672 37.219955 17.348116 37.347656 17.603516 C 37.480327 17.868916 37.535156 18.098381 37.535156 18.300781 L 37.535156 31.701172 C 37.535156 31.716172 37.533903 31.710656 37.533203 31.722656 C 37.518313 31.712656 37.519203 31.724031 37.501953 31.707031 L 37.494141 31.697266 L 32.935547 28.416016 C 32.797949 28.312916 32.63738 28.128828 32.478516 27.861328 C 32.35074 27.601728 32.294922 27.376634 32.294922 27.177734 L 32.294922 16.537109 C 32.294922 16.323609 32.346972 16.086166 32.455078 15.822266 C 32.59228 15.552766 32.743671 15.334422 32.908203 15.169922 C 33.033148 15.044922 33.14658 14.996094 33.355469 14.996094 z M 57.921875 35.929688 C 57.634513 35.896992 57.341472 36.007013 57.105469 36.164062 L 57.099609 36.164062 L 55.324219 37.414062 L 55.314453 37.423828 C 55.01677 37.655328 54.771006 37.952428 54.582031 38.298828 L 54.578125 38.308594 L 54.574219 38.318359 C 54.386889 38.693059 54.28125 39.078591 54.28125 39.462891 L 54.242188 42.939453 C 54.242188 43.323753 54.347827 43.707431 54.535156 44.082031 L 54.541016 44.097656 L 54.550781 44.111328 C 54.760944 44.471628 54.995917 44.764516 55.28125 44.978516 L 55.287109 44.978516 L 56.375 45.744141 L 56.332031 45.710938 C 56.597534 45.943237 56.904413 46.110294 57.234375 46.183594 C 57.541368 46.251594 57.868776 46.274587 58.162109 46.054688 L 58.189453 46.033203 L 58.214844 46.007812 C 58.433458 45.789213 58.518931 45.521244 58.582031 45.214844 C 58.673181 44.927244 58.722656 44.619922 58.722656 44.294922 L 58.722656 37.015625 C 58.722656 36.823525 58.698446 36.637531 58.621094 36.457031 C 58.543744 36.276531 58.394397 36.102513 58.205078 36.007812 L 58.205078 36.013672 C 58.112903 35.967597 58.017662 35.940586 57.921875 35.929688 z M 57.714844 36.947266 C 57.718844 36.974266 57.722656 36.973531 57.722656 37.019531 L 57.722656 44.298828 C 57.722656 44.546728 57.687623 44.761359 57.626953 44.943359 L 57.617188 44.970703 L 57.611328 45 C 57.576608 45.1736 57.541034 45.217841 57.527344 45.244141 C 57.535544 45.234141 57.569422 45.233937 57.451172 45.210938 C 57.301134 45.177938 57.151398 45.103891 56.990234 44.962891 L 56.970703 44.945312 L 55.882812 44.179688 C 55.745207 44.076487 55.584654 43.890647 55.425781 43.623047 C 55.298006 43.363547 55.242188 43.138453 55.242188 42.939453 L 55.28125 39.460938 C 55.28125 39.261238 55.33807 39.034138 55.466797 38.773438 C 55.595889 38.538937 55.747288 38.35845 55.925781 38.21875 L 57.660156 36.996094 C 57.752416 36.934094 57.710124 36.951266 57.714844 36.947266 z "
       transform="translate(0,1002.3621)"
       id="path4217" />
    <text
       xml:space="preserve"
       style="font-style:normal;font-weight:normal;font-size:40px;line-height:125%;font-family:sans-serif;letter-spacing:0px;word-spacing:0px;fill:#000000;fill-opacity:1;stroke:none;stroke-width:1px;stroke-linecap:butt;stroke-linejoin:miter;stroke-opacity:1"
       x="19.655172"
       y="1039.9484"
       id="text4253"
       sodipodi:linespacing="125%"><tspan
         sodipodi:role="line"
         id="tspan4255"
         x="19.655172"
         y="1039.9484"></tspan></text>
    <text
       xml:space="preserve"
       style="font-style:normal;font-weight:normal;font-size:40px;line-height:125%;font-family:sans-serif;letter-spacing:0px;word-spacing:0px;fill:#000000;fill-opacity:1;stroke:none;stroke-width:1px;stroke-linecap:butt;stroke-linejoin:miter;stroke-opacity:1"
       x="8.2758608"
       y="1040.7242"
       id="text4257"
       sodipodi:linespacing="125%"><tspan
         sodipodi:role="line"
         id="tspan4259"
         x="8.2758608"
         y="1040.7242"
         style="font-style:normal;font-variant:normal;font-weight:normal;font-stretch:normal;font-family:'New Gothic Textura';-inkscape-font-specification:'New Gothic Textura'">R</tspan></text>
  </g>
</svg>
